<?xml version="1.0" encoding="utf-8"?>
<!-- Generator: Adobe Illustrator 24.2.1, SVG Export Plug-In . SVG Version: 6.00 Build 0)  -->
<svg version="1.1" id="Layer_1" xmlns="http://www.w3.org/2000/svg" xmlns:xlink="http://www.w3.org/1999/xlink" x="0px" y="0px"
	 viewBox="0 0 276 197" style="enable-background:new 0 0 276 197;" xml:space="preserve">
<style type="text/css">
	.st0{opacity:0.5045;}
	.st1{opacity:0.5045;fill-rule:evenodd;clip-rule:evenodd;fill:#F2F2F2;enable-background:new    ;}
	.st2{fill-rule:evenodd;clip-rule:evenodd;fill:#E1E9D9;}
	.st3{opacity:0.2;fill-rule:evenodd;clip-rule:evenodd;fill:#C1DEE2;enable-background:new    ;}
	.st4{opacity:0.7;}
	.st5{opacity:0.7;fill-rule:evenodd;clip-rule:evenodd;fill:#69A1AC;enable-background:new    ;}
	.st6{opacity:0.7;fill-rule:evenodd;clip-rule:evenodd;fill:#89C5CC;enable-background:new    ;}
	.st7{opacity:0.5;}
	.st8{opacity:0.5;fill-rule:evenodd;clip-rule:evenodd;fill:#69A1AC;enable-background:new    ;}
	.st9{opacity:0.5;fill-rule:evenodd;clip-rule:evenodd;fill:#C1DEE2;enable-background:new    ;}
	.st10{opacity:0.5;fill-rule:evenodd;clip-rule:evenodd;fill:#89C5CC;enable-background:new    ;}
	.st11{fill-rule:evenodd;clip-rule:evenodd;fill:#F2F2F2;}
	.st12{fill-rule:evenodd;clip-rule:evenodd;fill:#D9DFD1;}
	.st13{fill:#C5CFD6;}
	.st14{fill:#F4A269;}
	.st15{fill:#FFB27D;}
	.st16{fill:#C65447;}
	.st17{fill:#163560;}
	.st18{fill:#1C468A;}
	.st19{fill:#B5453C;}
	.st20{fill:#9E332E;}
</style>
<g class="st0">
	<path class="st1" d="M232,92.8c39.7,28.2,1.5,81.2-81.7,94.8c-83.2,13.6-179.9-5.9-175.9-35.7S192.3,64.5,232,92.8z"/>
</g>
<path class="st2" d="M88.5,16.9c-0.3,0.4-1.1,3.2-1.4,3.2c2.6,0,7.3,0,8.6-3c1.2-2.8-1.7-4.1-3.8-3C90.6,14.8,89.4,15.7,88.5,16.9z
	 M67.4,67.8C67.3,67.8,66.8,68.2,67.4,67.8L67.4,67.8z M88.6,28.6c-0.6,0.2-2.1,1.1-3.2,2c0.2-0.7,0.3-1.3,0.4-2
	c0.4-2.8,0.7-5.5,0.9-8.3c0.1-1,0-2.1-0.1-3.2c0-0.1,0.1-0.2,0.1-0.3c0,0.3,0,0.3,0.1,0.1c1.1-1.6,2.1-3.5,2.2-5.6
	c0.1-1.8-1.4-5.1-3.4-2.8c-0.9,1-0.7,8.3,0.7,8.7c-0.4,2.3-0.8,4.7-1.4,7.1c-0.1,0-0.2,0-0.3,0c0-0.5,0-1.2,0-1.4
	c-0.2-1.9-1.8-5.7-4.3-5c-1.9,0.6-0.8,3-0.1,4c1.1,1.7,2.3,2.4,3.8,3.3c0,0.3,0.2,0.5,0.5,0.6c-1,3.8-2.3,7.5-4.1,11
	c-0.2-1.1-0.5-2.5-0.7-2.8c-0.8-1.3-2.7-3-4.5-2.2c-3.7,1.7,0.3,6.6,3.4,7.1c0.1,0.2,0.3,0.3,0.4,0.4c-0.7,1.1-1.3,2.1-2,3.1
	c-1,1.5-2.1,3-3.3,4.5c0-1.2-0.5-3.8-0.6-4.1c-0.8-1.8-3.1-3.5-5-2.3c-2.1,1.3-0.2,3.9,1,5.1c0.5,0.5,2.9,2.3,3.8,2.3
	c-2.9,3.5-6,7-9.2,10.4c0.3-1.5,0.6-5.6,0.6-6.1c-0.2-2.4-1.7-6.2-4.8-5.3c-2.9,0.9-1.6,4.8-0.6,6.7c0.6,1.1,1.5,2.3,2.5,3.1
	c0.4,0.3,1.1,0.5,1.4,0.8c0.4,0.3,0.2,0.8,0.6,1.1c-1.8,1.8-3.5,3.6-5.2,5.3c-0.8,0.8-1.7,1.6-2.5,2.4c-0.5-0.2-1.1,0.1-1.1,0.7
	c0,0,0.1,0.1,0.1,0.2c-0.6,0.5-1.3,1.1-1.9,1.7c0-0.1,0-0.4,0-0.7c0.6,0.9,0.3-1.1,0.4-1.6c0.2-1.5,0.6-2.9,0.6-4.4
	c-0.1-2.2-1.4-5.8-4.3-4.5c-2.7,1.2-1.7,4.4-0.7,6.4c0.6,1.3,1.5,2.4,2.4,3.5c0.4,0.5,0.9,1.4,1.2,1.6c-3.5,3.1-7.2,6.2-10.8,9.3
	c0-0.2-0.1-0.4-0.1-0.6c0.1,0.1,0.2,0.1,0.3,0.1c0.4-2.1,3.4-13.5-2.8-11.5c-4.2,1.4-1.2,9.8,1.9,12.7c-1.9,1.6-3.8,3.3-5.6,5
	c-1.3,1.2-2.6,2.5-3.8,3.8c0.6-1.7,1.2-3.9,0.8-5.7c-0.6-2.5-3.3-5-5.9-3.5c-5,2.8,3.3,7,4.3,10c-3.9,4.3-7.3,9.1-9.5,14.6
	c-2.4,5.9-4.7,13.9-3.4,20.6c-0.3-3.4,1-7.6,1.7-10.2c1.1-4,2.5-7.9,4.5-11.5c3.1-5.8,7.2-10.8,12-15.3c1.7,0.6,3.7,2.1,4.7,2.5
	c1.8,0.8,5.3,1.9,6.5-0.6c1.1-2.5-1.8-3.9-3.6-4.4c-1.7-0.5-3.3-0.4-4.9,0c3-2.7,6-5.2,9.1-7.8c2.8,2.2,6.7,8.6,10.1,5.3
	c3.9-3.8-3.5-7.7-6.7-7.4c-0.4,0-0.7,0.1-1.1,0.2c3.3-2.8,6.5-5.6,9.5-8.6c1.8,0.3,6.9,8,10.4,4.6c1.8-1.7,1.2-4.3-0.5-5.8
	s-4.1-1.5-6.2-1c-0.9,0.2-1.7,0.6-2.5,1.1h-0.1c2.9-3,5.9-6,8.8-9.2c0.1,0,0.1,0,0.2,0c0.1,0.2,0.4,0.2,0.7,0.2
	c2.3,0.8,5.5,2,7.9,1.5c1.7-0.4,3.2-1.7,1.8-3.4c-1.2-1.3-4.3-1.1-5.8-0.8c-1.1,0.2-2.3,1-3.4,1.6c-0.1-0.1-0.2-0.2-0.4-0.3
	c2.8-3.2,5.5-6.5,8-9.9c2.6,0.4,6.1,3.3,8.3,0.6c2.4-2.7-2-4.4-4.1-4.1c-0.7,0.1-1.4,0.3-2.1,0.6c1.8-2.8,3.1-5.8,4.1-9
	c0.1,0,0.1,0,0.1,0c-0.1,0-0.1,0-0.1,0c0.1-0.4,0.2-0.7,0.3-1c0.2-0.1,0.3-0.2,0.4-0.2c-0.9,0.6,3.1,0.9,3.8,1
	c1.7,0.1,3.9,0.2,5.1-1.2c1-1.2,0.9-2.8-0.3-3.8C92.5,26.5,90.1,27.2,88.6,28.6z M18.4,126.3c-0.4-0.8-0.5-1.6-0.6-2.6
	C18,124.6,18.1,125.4,18.4,126.3z"/>
<path class="st3" d="M173.4-42c0.2,0.3,0.8,2.3,1,2.3c-1.9,0.1-5.3,0-6.2-2.1c-0.9-2,1.2-2.9,2.7-2.1
	C171.8-43.4,172.7-42.8,173.4-42z M188.4-4.9C188.4-4.9,188.9-4.5,188.4-4.9L188.4-4.9z M173.1-34.2c0.4,0.2,1.5,0.8,2.3,1.5
	c-0.1-0.4-0.2-0.9-0.3-1.4c-0.3-2-0.6-4-0.7-6c0-0.7,0.1-1.5,0.1-2.3c-0.1,0-0.1-0.1-0.1-0.2c0,0.2,0,0.2-0.1,0.1
	c-0.8-1.2-1.5-2.6-1.6-4.1c0-1.3,1-3.7,2.5-2c0.7,0.8,0.5,6-0.5,6.3c0.2,1.8,0.6,3.5,1,5.2c0.1,0,0.1,0,0.2,0c0-0.4,0-0.8,0-1
	c0.1-1.4,1.3-4.1,3.1-3.6c1.4,0.4,0.6,2.2,0.1,2.9c-0.8,1.3-1.7,1.8-2.8,2.4c0,0.3-0.2,0.5-0.4,0.5c0.7,2.8,1.7,5.5,3,8
	c0.2-0.8,0.4-1.8,0.5-2c0.6-1,2-2.2,3.3-1.6c2.7,1.2-0.2,4.7-2.5,5.1c-0.1,0.1-0.2,0.2-0.3,0.3c0.4,0.7,0.9,1.5,1.4,2.2
	c0.7,1.1,1.5,2.2,2.4,3.3c0.1-0.9,0.4-2.8,0.5-3c0.5-1.2,2.2-2.5,3.6-1.6c1.6,1,0.2,2.9-0.7,3.7c-0.4,0.3-2.2,1.6-2.8,1.6
	c2.1,2.5,4.4,5.1,6.7,7.5c-0.2-1.1-0.4-4.1-0.4-4.4c0.1-1.7,1.3-4.5,3.5-3.8s1.2,3.5,0.5,4.9c-0.4,0.8-1,1.6-1.8,2.2
	c-0.3,0.2-0.8,0.4-1.1,0.6c-0.2,0.2-0.1,0.6-0.4,0.8c1.3,1.3,2.6,2.6,3.8,3.8c0.6,0.6,1.2,1.1,1.8,1.7c0.4-0.1,0.8,0,0.8,0.5
	c0,0.1,0,0.1,0,0.2c0.5,0.5,0.9,0.9,1.4,1.3c0-0.1,0-0.3,0-0.5c-0.4,0.6-0.3-0.9-0.3-1.2c-0.1-1.1-0.4-2.1-0.4-3.2
	c0-1.5,1-4.1,3.1-3.2c1.9,0.8,1.2,3.2,0.5,4.6c-0.4,0.9-1,1.7-1.7,2.5c-0.3,0.4-0.7,1-0.9,1.2c2.6,2.3,5.3,4.5,7.9,6.8
	c0-0.1,0.1-0.3,0.1-0.4c0,0.1-0.1,0.1-0.2,0.1c-0.3-1.5-2.5-9.8,2-8.3c3,1,0.9,7.1-1.4,9.2c1.4,1.2,2.8,2.4,4.1,3.6
	c1,0.9,1.9,1.8,2.8,2.8c-0.4-1.2-0.9-2.8-0.6-4.1c0.4-1.8,2.4-3.6,4.3-2.5c3.6,2-2.5,5.1-3.2,7.2c2.9,3.2,5.4,6.6,7,10.6
	c1.8,4.3,3.4,10.1,2.5,14.9c0.1-2.4-0.8-5.6-1.3-7.4c-0.8-2.8-1.9-5.7-3.3-8.3c-2.3-4.3-5.3-7.8-8.8-11.1c-1.3,0.4-2.8,1.5-3.5,1.8
	c-1.3,0.6-3.9,1.4-4.7-0.4c-0.8-1.7,1.3-2.7,2.6-3.1s2.4-0.3,3.6,0c-2.1-2-4.4-3.8-6.5-5.7c-2,1.7-4.9,6.3-7.4,3.9
	c-2.9-2.8,2.6-5.6,4.9-5.4c0.3,0.1,0.5,0.1,0.8,0.2c-2.4-2-4.7-4-6.8-6.3c-1.3,0.3-5.1,5.8-7.6,3.4c-1.3-1.2-0.8-3.1,0.4-4.2
	s3-1.1,4.5-0.7c0.6,0.1,1.2,0.4,1.8,0.8c0.1,0,0.1,0,0.1,0c-2.2-2.2-4.4-4.4-6.5-6.7h-0.1c-0.1,0.2-0.3,0.2-0.5,0.2
	c-1.7,0.6-4,1.4-5.8,1.1c-1.2-0.2-2.3-1.2-1.3-2.4c0.8-1,3.1-0.8,4.2-0.6c0.8,0.2,1.7,0.8,2.5,1.2c0.1-0.1,0.2-0.2,0.3-0.2
	c-2.1-2.3-4.1-4.7-5.9-7.2c-1.8,0.3-4.4,2.3-6,0.4c-1.7-2,1.5-3.2,3-3c0.5,0.1,1,0.2,1.5,0.4c-1.3-2-2.3-4.2-3-6.5
	c-0.1,0-0.1,0-0.1,0c0.1,0,0.1,0,0.1,0c-0.1-0.2-0.1-0.5-0.2-0.7c-0.1,0-0.2-0.1-0.3-0.1c0.7,0.4-2.3,0.7-2.8,0.7
	c-1.2,0-2.8,0.1-3.7-0.9c-0.8-0.8-0.7-2,0.2-2.7C170.2-34.8,171.9-34.3,173.1-34.2z M224.3,37c0.3-0.5,0.4-1.1,0.5-1.7
	C224.7,35.9,224.5,36.5,224.3,37z"/>
<g class="st4">
	<path class="st5" d="M57.7,109.5c-3.6,10.6-13.1,26.9-26.6,23.8c3.1-5.3,6.5-10.9,9.5-16.1c0.6-1.1,1.4-2.4,2-3.7
		c0.5-1,2.9-6.2,0.3-3.6c-1.3,1.4-2.4,4.9-3.4,6.8c-0.6,1.1-1.6,2.9-2,3.7c-8.1,14.7-20.5,26-23,43.3c-0.6,4.4-0.1,8.3,0.4,12.7
		c0.1,0.7,0.8,2.8-0.8,2.5c-1.5-0.2-1.6-4-1.8-5c-1.2-8.2,0.9-16.9,4.2-24.4c2.3-5.2,5.5-9.6,9-14c1.8-2.3,2.3-2.1,1.4-4.7
		c-0.7-2.1-1-5.3-0.5-7.5c0.9-3.4,4.1-6.2,5.7-9.5c1.6-3.4,2.8-7,3.4-10.7c0.7-4.7,0.5-9.3,1-14c0.7-6.5,8-9.9,13.9-9.6
		C64.4,80.2,60.8,100.8,57.7,109.5z"/>
	<path class="st6" d="M-49.2,91.5c1.5,10.3,6,24.1,16.7,27.8c3.9,1.3,7.5,1.8,10.8,4.5c1.9,1.6,3.5,3.6,5.1,5.7l0,0
		c5.1,7.5,12.6,13.9,22.3,10.7c-0.2-0.3-0.4-0.7-0.6-1.1c-0.4-0.8-0.9-1.8-1.3-2c-2.7-4.5-6-9.1-8.8-12.7c-1.3-1.6-4.4-4.6-4.7-6.1
		c-0.6-3.2,3.6,2.5,3.6,2.5c3.9,5,7.7,10.2,11,15.6l0,0c0,0.5,0.5,1.2,1,1.9c0.2,0.3,0.3,0.5,0.5,0.7c0.1,0,0.2,0.1,0.2,0.2
		c0.1-0.1,0.1-0.1,0.1-0.1c0,0.1,0.1,0.1,0.1,0.1c0.6,1.3,1.2,2.5,1.8,3.8c5.4,12.2,5,24.1,4.6,37.1c-0.1,2.7-1,6.7-0.3,9.3
		c0.9,2.8,1.4,0.1,1.5-1.6c0.3-6.2,0.6-12.5,0.8-18.7c0.3-10.3-2.2-20.7-6.6-30.1c1.2-0.8,2.3-2.5,2.8-3.4c1.7-3.2,1.3-7.1-0.2-10.4
		c-1.1-2.6-2.7-4.7-4.5-6.5c-0.9-1.9-2.2-3.6-3.9-5.3C-2.8,108-5.7,102.2-7,94.6c-0.9-5-1.1-10.1-2.7-15
		c-2.9-9.2-9.3-15.7-19.2-16.5C-42.8,62-50.8,79.8-49.2,91.5z"/>
	<path class="st6" d="M-10.6,29.3c-0.1,0.7-0.6,1.2-0.6,2c0,0.4,0.4,1.2,0.5,1.6c0.3,1.7,0.3,3.4,0.4,5c0.4,5.2,1.1,10.3,2,15.4
		c1.2,7,2.8,14.1,5.4,20.7c2.2,5.8,5.1,14.7,10.8,18.1c1.4,0.9,3.1,0.8,4.5,1.5s0.9-0.1,1.3,1.7c0.4,1.7,0.5,3.5,0.7,5.2
		c1.2,11.5,0.8,23.1,0.9,34.7c0.1,7.1-0.1,14.1-1,21.1c-0.1,1.2-2.2,8.7-1.5,9.8c1.2,1.9,2.6-6.3,2.6-6.6c0.6-3.7,1-7.5,1.2-11.2
		c0.7-10.5,0.4-21.1,0.3-31.6c-0.1-16.1-3-31.7-7.3-47.1c-3.9-13.8-8.8-28.4-19-39C-9.8,30.2-10.2,29.8-10.6,29.3z"/>
	<path class="st6" d="M-17.4,171.5c0,17.5,14.2,31.7,31.7,31.7S46,189,46,171.5"/>
	<path class="st5" d="M11.5,168.7c-0.9-8-4.5-20.6-13.6-22.6c-0.8-0.2-3.7,0.1-6.2,0.4c-0.9,0.3-1.7,0.7-1.9,1.2
		c-0.7,1.6,3.8-0.4,4.3-0.5c2.6-0.5,4.4,0,4.1,3.1c-0.2,2.3-2,3.6-3.6,5c-1,0.9-2.1,1.6-3.1,2.5c-4.4,3.8-5.1,8.6-5.2,14.1
		c-0.1,4.2-0.4,11.3-6.1,11.2c-4.6,0-7.3-5.4-8.6-9.2c-1.8-5.6-2.3-12.6,0.7-17.9c3.8-6.6,12.6-12.9,20.4-12.3
		c0.9,0.1,1.7,0.3,2.4,0.7c1.5-0.1,2.8,0,3.1,0c9.2,1.3,13.4,13,14.7,20.9c0.3,2.1,0.5,4.2,0.6,6.3h-1.7
		C11.8,170.8,11.7,169.9,11.5,168.7z"/>
</g>
<g class="st7">
	<path class="st8" d="M190.5,31.2c3.7,7.2,8.2,16.5,10.7,24.2c2,6.4,4.1,22.6,6.1,41s6.1,74.6,5.6,82.7c0,1.6-1.8,1.3-1.7,0
		c1.1-14.2-5.2-87.7-7.8-101.6c-0.6-3-1-6.7-2.2-9.5c-0.9-2,0.2-1.2-1.8-2.2c-1.6-0.9-3.7-1.1-5.4-2.1c-3.7-2.2-6.4-5.8-8.7-9.4
		c-4.5-7-7.7-14.2-8.7-22.4c-0.5-4.5-1-9-0.9-13.6c0-1.2-0.5-7.4,1.2-6.8c2.6,0.9,6,7.5,7.8,10.1C186.9,24.7,188.8,27.9,190.5,31.2z
		"/>
	<path class="st9" d="M172.3,117.5c11.4,9.2,19.8,22,27.2,33.7c7.4,11.7,13.7,24.6,15.3,38c-1.1-6.3-5.3-13-8.5-18.8
		c-3.7-6.8-7.8-13.5-11.9-20.1c-4.1-6.7-8.1-13.5-12.8-20c-2.3-3.1-4.6-6.1-7.1-9.1c-0.8-0.9-1.7-2.1-2.6-3.2
		c-1.4,1.6-3.9,2.3-6.3,0.4c-4.3-3.5,0.9-10.1,5.6-6.6C173.4,113.4,173.4,115.8,172.3,117.5z"/>
	<path class="st8" d="M261.3,86c-0.6,4.5-1.8,8.9-3,13.3c-2.3,7.9-6.6,14.6-12,20.8c-2.7,3.2-5.9,6.4-9.9,8
		c-1.9,0.7-3.9,0.6-5.7,1.2c-2.1,0.7-0.9,0-2.1,1.9c-1.6,2.6-2.6,6.2-3.6,9.1c-4.7,13.3-8.1,27.1-9.2,41.3
		c-0.1,1.3,0.6,10.5-1.5,10.2c-2.4-0.3-0.8-12.1-0.6-13.6c0.8-8.1,2.2-16.2,4.3-24.1c3.4-12.9,8.2-25,14.1-36.8
		c3.6-7.2,7.9-14.2,12.7-20.7c2.2-3.1,4.6-6,7.2-8.7c2.2-2.3,6.5-8.3,9.2-8.8C262.9,78.8,261.5,84.9,261.3,86z"/>
	<path class="st10" d="M254.2-26.7c0.1,0.1,0.2,0.2,0.3,0.3c-1.6,0.3,2.3,26.3,2.3,28.7c0.1,12.4-2.5,25.5-8.9,36.2
		c-2.7,4.6-6.3,9.3-10.3,12.9c-2.1,1.9-4.5,3.6-7,4.9c-1.2,0.6-5.2,1-6,1.8c-0.8,0.8-0.9,4.5-1.1,5.7c-0.7,4.1-1.4,8.3-2.1,12.4
		c-1.4,8.4-2.9,16.9-3.8,25.5c-0.9,8.9-1.7,17.6-1.9,26.5c-0.5,18.6-3.5,38.2-0.4,56.7c-6.2-18.2-4.3-39.9-3.4-58.8
		c1-18.7,4.2-37.2,7.7-55.6c2.2-11.9,4.5-23.9,7.7-35.6c5.3-19.3,13.5-38.4,23.5-55.7C251.9-22.8,253.1-24.8,254.2-26.7z"/>
	<path class="st10" d="M147.2,44.9c1.8,1.5,3.5,3,5.1,4.7c5.7,6,10.7,13,14.9,20.2c1.5,2.7,2.7,6.9,5.4,8.2c2.5,1.2,6,1,8.7,1.6
		c7.5,1.1,12,4.7,13.5,12.4c1.4,6.9,1.5,14.7-0.1,21.7c-0.4,1.8-1.3,3.4-1,5.1c0.4,2.4,1.9,5.2,2.9,7.4c4,9.1,7.8,18.2,10.7,27.7
		c3.9,13,7.1,27,7,40.7c-3.8-23.2-11.2-45.6-20.3-67.2c-2.7-6.4-5.6-12.7-8.5-19c-2.5-5.3-5.2-10.4-8-15.5c-1.4-2.5-1.6-3.8-4.1-4.5
		c-4-1.1-7.4-2-10.9-4.4c-7.1-4.9-13.1-12.5-16.6-20.4c-1.6-3.6-2.8-7.4-3.5-11.3c-0.5-2.5-0.9-5-0.9-7.5c0-1.6,0.7-3-0.5-4.2
		c2.5,1.2,0.1-0.7,1.1-0.5c-0.5-0.1,0.5,1.5,0.7,1.7C143.6,42.9,146,44,147.2,44.9z"/>
	<path class="st9" d="M227.4,179.8c1.2,0.2,2,1.3,1.8,2.5l-2.1,14c-0.6,4.2-4.3,7.4-8.6,7.4h-9.6c-4.3,0-8-3.1-8.6-7.4l-2.1-14
		c0-0.1,0-0.2,0-0.3c0-1.2,1-2.2,2.2-2.2H227C227.1,179.8,227.2,179.8,227.4,179.8z"/>
</g>
<path class="st11" d="M230,186.9c0,9.2,0.7,16.7,10.5,16.7s10.5-7.5,10.5-16.7"/>
<path class="st11" d="M225.3,167.9c0.7,0.8,1.2,1.9,1.7,2.7c0.8,1.1,1.5,2.3,2.3,3.4c1.6,2.5,3.1,5,4.4,7.6c1.4,2.7,2.4,5.6,3.3,8.5
	c0.2,0.6,0.4,1.3,0.7,2c-0.1,0.8-0.2,1.6-0.3,2.4c0.1-0.5,0.3-1,0.5-1.5c-0.2,1.1-0.3,2.3-0.4,3.4c-0.1,1.4,0.3,3.3-0.1,4.7
	c1.1-4,2.8-7.7,4.6-11.5c1.8-2.3,4.1-4.5,6-6.6c1.7-1.7,3.4-3.4,5-5.2c1.4-1.5,2.7-3.4,4.7-4.4c-5.9,2.4-10.1,6.6-13.3,11.2
	c0.3-0.7,0.6-1.4,0.9-2.1c1.2-2.9,2.5-5.9,3.9-8.8c0.6-1.4,1.3-2.8,2.1-4.1c0.4-0.6,1.4-1.5,1.8-2.1l0,0c0.1,0,0.3-0.2,0.3-0.3
	c-0.5-1-6.9,5.3-7.4,5.9c-2,2.5-3.7,5.3-4.9,8.2c-0.1,0.1-0.1,0.3-0.2,0.5c0-0.7,0-1.3-0.1-2c-0.4-2.6-1.2-5.2-2.2-7.7
	c-0.7-1.7-1.4-5.1-3.5-6.2c-0.4-0.2-0.4,0.9-0.4,0.8c0-0.2,0.1-0.8,0.5-0.5c1.4,1.3,1.3,4.2,1.7,5.9c0.5,2.3,1.1,4.6,1.4,6.9
	c0.2,1.3,0.3,2.7,0.3,4c-0.3-0.6-0.6-1.3-1-1.9C234.7,176.2,229.8,172,225.3,167.9z"/>
<path class="st2" d="M-34.8,2.2C-40.2,11-44,19.9-45,30.3c-0.1,1.3-0.7,5.5,1.3,3.3c1.1-1.2,0.9-7.4,1.2-9
	c1.1-5.6,3.4-10.8,6.2-15.8c1-2,2.2-3.8,3.3-5.7c0.3-0.1,0.6-0.2,1-0.4c1.7-1.1,3.3-5.9,4.3-7.6c0.7-1.2,1.5-2.3,2.2-3.4
	c1.8-2.6,3.7-5.2,5.6-7.8l0,0c1.8-2.5,3.7-5,5.7-7.3c0,0,3.9-5.4,4.8-4c0.8,1.3-3,4.2-3.7,5c-7,7.7-12.7,16.9-17.7,26
	c5.3,0.7,9.6-1.2,13-5.5c2.3-2.9,3.4-6.8,5.2-10c2.3-4,5.1-6.3,9.3-8C4.2-23,8-28.1,8.8-36.4c0.7-6.7-1-14.1-7.1-17.8
	c-4-1.9-9.1,0.4-12.1,3.1c-4.1,3.7-5.4,9.2-6.7,14.4c-2.2,8.8-5.5,12.6-11.6,18.6c-3.2,3.1-6.2,6.5-7.5,10.8
	C-36.8-5.5-36.5,0-34.8,2.2z"/>
<path class="st12" d="M28.3,7C24.1,8.5,22,6.3,18.2,5.2c-1.5-0.4-2.9-0.5-4.4-0.3C11.7,5.3,9.6,6.5,7.4,7C4.9,7.6,2.5,6.5,1.5,4.2
	C5.1,1.9,9,0.4,13.2-0.3c2.2-0.4,4.5-0.6,6.8-0.6c0.5,0,3.6,0.4,3.6-0.4c0-0.9-1.9-0.5-2.5-0.5c-4.5,0-9,0.6-13.3,2
	c-4.1,1.4-7.5,3.9-11.3,6c-1.8,1-9.7,6.7-10.4,5.9c-0.7-0.9,7.3-5.7,8-6.1c5.4-3.3,11.4-6.8,17.5-8.7c3.7-1.1,7.8-2.1,11.7-2.3
	c3.2-0.2,8.3,0.3,10.5,2.8C36.9,1.4,31.5,5.8,28.3,7z"/>
<path class="st13" d="M47.3,172.5c0-23.6,20.1-42.8,44.8-42.8s44.8,19.2,44.8,42.8s-20.1,42.8-44.8,42.8S47.3,196.1,47.3,172.5z"/>
<g>
	<g>
		<path class="st14" d="M93.7,66.6c-0.7,5.2,9,27.7,11.6,31.5c2.6,3.8,25.4,6.9,25.4,6.9l1.2-2.7c0,0-15.5-6.3-18.3-8.5
			c-2.8-2.2-4.5-6.1-6.4-16.6c-2.2-12.1-6.1-17.8-6.1-17.8S94.6,61.4,93.7,66.6z"/>
		<g>
			<path class="st15" d="M157.5,182.8c0.5-1.3,1.1-3,0.7-4.6c-0.6-2.7-2.5-8.9-2.5-8.9l6.7,1.4c0,0,1.9,6.9,3.9,9.1
				c2.1,2.2,3.7,4.7,6.4,5.9c0.3,0.1,0.6,0.3,0.9,0.4c2.4,1.1,4.7,2,4.4,2.6c-0.3,0.6-2.3,2-7.2,1.1c-4.9-0.9-3.8-1.6-7.4-1.8
				c-3.6-0.1-6.7-0.7-6.5-2.9C157,184.3,157.2,183.6,157.5,182.8z"/>
			<path class="st16" d="M157,185c0.1-0.7,0.3-1.5,0.6-2.2c2.2,0.7,5.4,2.6,8.6,3.5c3.9,1.1,7.4-0.1,7.4-0.1l0,0
				c2.4,1.1,4.7,2,4.4,2.6c-0.3,0.6-2.3,2-7.2,1.1c-4.9-0.9-3.8-1.6-7.4-1.8C159.8,187.9,156.7,187.3,157,185z"/>
		</g>
		<path class="st17" d="M83.5,101c0,0-4.8,10.1,1,20.4c5.8,10.3,44.3,5.4,47.4,5.6c3.1,0.2,2.7,6.4,4.1,13.3
			c1.4,6.9,20.6,34.4,20.6,34.4s3.8,1,5.5,0.8c1.9-0.2,2.7-0.9,2.7-0.9s-13.3-61.4-21.7-66.7c-8.3-5.2-52.7-1.9-52.7-1.9L83.5,101z"
			/>
		<g>
			<path class="st15" d="M140.5,189.9c0.5-1.3,1.1-3,0.7-4.6c-0.6-2.7-2.5-8.9-2.5-8.9l6.7,1.4c0,0,1.9,6.9,3.9,9.1
				c2.1,2.2,3.7,4.7,6.4,5.9c0.3,0.1,0.6,0.3,0.9,0.4c2.4,1.1,4.7,2,4.4,2.6c-0.3,0.6-2.3,2-7.2,1.1c-4.9-0.9-3.8-1.6-7.4-1.8
				c-3.6-0.1-6.7-0.7-6.5-2.9C140,191.5,140.3,190.7,140.5,189.9z"/>
			<path class="st16" d="M140,192.1c0.1-0.7,0.3-1.5,0.6-2.2c2.2,0.7,5.4,2.6,8.6,3.5c3.9,1.1,7.4-0.1,7.4-0.1l0,0
				c2.4,1.1,4.7,2,4.4,2.6c-0.3,0.6-2.3,2-7.2,1.1c-4.9-0.9-3.8-1.6-7.4-1.8C142.8,195,139.7,194.5,140,192.1z"/>
		</g>
		<path class="st18" d="M70.1,127.5c5.4,10.5,44,7.1,47.1,7.4c3.1,0.3,2.5,6.4,3.6,13.4s19.3,35.2,19.3,35.2s3.8,1.1,5.5,1
			c1.8-0.2,2.7-0.8,2.7-0.8s-11-61.9-19.1-67.5s-47.5-7.5-47.5-7.5S64.8,116.9,70.1,127.5z"/>
		<path class="st19" d="M95.7,22c-1.7-1.1-3.9-1.4-5.4-1.4c0.4-0.4,1.2-0.5,1.2-0.5c-0.9-0.2-3.1,0.6-3.1,0.6
			C75.6,14.8,72.2,34,72.2,38.5c-0.1,4.5-0.4,9.7-7.2,13.3c-13.5,7-3.5,21.6-3.5,21.6c0.1,0.1,9,11.8,9,11.8
			c0-3.7,14.4-23,23.5-28.2c2.3-3,3.4-8.5,3.5-8.9c-0.6,4.3-1.5,6.8-2.3,8.1C103.1,49.9,100.4,25,95.7,22z"/>
		<path class="st15" d="M89.6,60.9c7.3,1.1,7.7-5,4.2-6.5c-1.4-0.6-3.9-1.4-6.4-1.6c-3.6-0.3-7.3,0-7.3,0
			C79.6,54.6,82.3,59.7,89.6,60.9z"/>
		<path class="st15" d="M93.2,52.4c0.2-2.9,0.6-5.9,0.6-5.9l-9.6-2.6l-0.6-0.2c-0.4,7.5-2.8,10.8-3.1,12.1c-0.6,2.7,6.2,6.5,9.3,6.6
			c4.7,0.2,3.7-5.1,3.7-5.1C92.9,57,92.9,54.7,93.2,52.4z"/>
		<path class="st14" d="M84.1,43.7c1,2.8,3.6,8,9,8.5c0.2-2.9,0.6-5.9,0.6-5.9L84.1,43.7z"/>
		<path class="st19" d="M97.5,42.6l1.1-2.9c4.2-8.7,1.2-12.2-0.9-13.8c-2.6-2.1-5.6-2.6-5.6-2.6C82,21.1,79.9,31.2,80.2,34
			c0.5,3.9,3,8.6,3,8.6L97.5,42.6z"/>
		<path class="st15" d="M100.6,33.1c-0.5-2.8-1.9-5.9-10.1-6c-8.3-0.1-7,5.4-7.5,13.4c-0.5,8.1,12.4,8.7,12.4,8.7
			C98.7,49.1,101.1,35.8,100.6,33.1z"/>
		<path class="st19" d="M84.6,28.2c-1.2,5.7-5.6,8.7-5.6,8.7s2.2,1.6,7.7,0.6s9.6-10.2,9.6-10.2C94,22.6,84.6,28.2,84.6,28.2z"/>
		<path class="st19" d="M100.4,28.6c2.8,3.8-0.3,10-0.3,10c-1.2,0.1-1.2-4.1-1.7-6.2c-0.5-2.1-3-4.4-3-4.4S97.6,24.5,100.4,28.6z"/>
		<path class="st18" d="M102.7,101.8c-1.5-0.8-2.8-1.7-3.2-2.6c-0.3-0.7-0.3-2.2-0.1-4.1c0.6-5.4,2.6-14.2,2.5-17
			c-0.1-3.8-1.4-9.5-1.4-9.5c5.2-1,5.1-3.1,5.1-3.1c-0.6-1.7-3.9-7.7-5.2-9.1s-6.8-2-6.8-2s1.4,5.1-4.6,5.1s-9.1-6.7-9.1-6.7
			s-2.8,14-4.8,26c0,0.5-0.1,1-0.2,1.5c-1,6.2-1.8,11.5-1.8,13.8c0,4.1-3.5,13.7-5.1,20.6c-1,4.3-1.3,7.6,0.4,7.8
			c4.5,0.4,19.7-8.8,24.3-11.5c2.1-1.2,5-1.7,7.7-2.2c3.5-0.6,6.8-1,7.8-2.2C109.5,105.1,105.8,103.5,102.7,101.8z"/>
		<path class="st17" d="M99.8,99.2c-0.3-0.7-0.3-2.2-0.1-4.1c-2.2-0.5-5.2-1.3-8.1-2.6c-5.5-2.4-11.2-17.2-11.2-17.2L75,80.4
			c-1,6.2-1.8,11.5-1.8,13.8c0,4.1-3.5,13.7-5.1,20.6c-1,4.3-1.3,7.6,0.4,7.8c4.5,0.4,18.7-9.5,23.3-12.2c2.1-1.2,14.4-2.9,11.1-8.6
			C101.4,100.9,100.1,100.1,99.8,99.2z"/>
		<g>
			<rect x="109.6" y="106" class="st20" width="12.4" height="1.5"/>
			<path class="st20" d="M143.3,106.8l12.6-17.7h-25.1c0,0-11.3,17.7-11.4,18.2L143.3,106.8z"/>
			<path class="st19" d="M143.9,107.5l12-18.4h-24c0,0-11.3,17.9-11.4,18.4H143.9z"/>
			<path class="st20" d="M140.7,97c-0.7,0-1.5,0.6-1.7,1.3c-0.2,0.7,0.2,1.3,0.9,1.3s1.5-0.6,1.7-1.3C141.9,97.6,141.5,97,140.7,97z
				"/>
		</g>
		<path class="st15" d="M118.3,105.1c-0.5,0.8-2.4,1.4-4.5,0.7c-1.7-0.6-4.7-0.9-6.4-1.5l0,0c0,0-21,2.4-28.3,0.3
			c-6.6-2-14.1-39.6-9.7-44.9s9-2.5,9-2.5c2.3,0.7,4.4,37.1,5.3,38.3c0.8,1,17,4.2,21.9,5.2c1.6-0.3,7-1.3,7.7-1
			C114.1,100.1,118.7,104.2,118.3,105.1z"/>
		<path class="st18" d="M82.7,72.3c-9.9,2.6-18.2-4.1-18.2-4.1s0.8-8.4,3.5-11.5c2.7-3.1,12.1-3.9,12.1-3.9L82.7,72.3z"/>
	</g>
</g>
</svg>
