<?xml version="1.0" encoding="utf-8"?>
<!-- Generator: Adobe Illustrator 24.2.1, SVG Export Plug-In . SVG Version: 6.00 Build 0)  -->
<svg version="1.1" id="Layer_1" xmlns="http://www.w3.org/2000/svg" xmlns:xlink="http://www.w3.org/1999/xlink" x="0px" y="0px"
	 viewBox="0 0 152 334" style="enable-background:new 0 0 152 334;" xml:space="preserve">
<style type="text/css">
	.st0{fill:#424773;}
	.st1{fill:#8B92DB;}
	.st2{fill:#E3E3E3;}
	.st3{fill:#D88A51;}
	.st4{fill:#EEA886;}
	.st5{fill:#323657;}
	.st6{fill:#979FF0;}
	.st7{fill:#D44040;}
	.st8{fill:#EEA987;}
	.st9{fill:#A77860;}
	.st10{fill:#E8734D;}
</style>
<g>
	<g>
		<g>
			<path class="st0" d="M93.5,325.9l-2.3,8.9c0,0,10.8,5.9,11.3,4.9c0.5-1.1,4.2-7.9,4.2-7.9C105.6,330.2,93.4,325.8,93.5,325.9z"/>
		</g>
	</g>
	<g>
		<g>
			<path class="st1" d="M91.4,334c0,0-9.4,13.5-8.7,16.4c0.7,3,8.2,4.3,22.6,10.1c20.2,8.1,19.9,1.5,18.9-0.5
				c-1.4-2.8-13.7-9.1-16.5-12.3c-2.8-3.2-4.8-8.9-4.8-8.9C94,336.5,91.4,334,91.4,334z"/>
		</g>
	</g>
	<g>
		<path class="st1" d="M-15.8,361.1c0,0-0.7,2.9-5.9,7.9c-4.1,3.9-2,6.4-1.6,11.1c0.4,5-1,12.8,2.6,17.1c3.6,4.2,7.8,5.6,9.5,6.1
			c1.7,0.5,3.8-0.5,4.6-4.1c0.8-3.6-0.4-12.9,0.4-16.5c0.8-3.5,3.8-14.1,3.8-14.1L-15.8,361.1z"/>
	</g>
	<g>
		<path class="st2" d="M40.1,209.8c-5.8,11.3-9.8,74.6-9.7,80.3c0,3.4-14.1,24.6-17.4,32c-4.3,9.7-33.2,42.4-33.2,42.4
			c10.2,9.7,18,11.4,18,11.4s27.7-36.8,32.4-43c2.8-3.8,16.6-18.2,22.7-26.8c3.3-4.7,12.8-40.7,14.5-52.1c1.9-12.4,3.7-33,3.7-33
			S45.9,198.3,40.1,209.8z"/>
	</g>
	<g>
		<path class="st2" d="M61.2,235c4.9,5.9,51.5,30,49.3,33.9c-2.2,4-10.4,30.4-13.1,38.1c-2.7,7.7-9.9,26.7-8.6,26.9
			s15.3,6.8,15.8,4.6c0.5-2,27.9-65.6,29.8-73.5c1.9-7.8-1-8.8-5.4-16.2c-4.4-7.5-40.4-40.1-40.4-40.1
			C63.4,202.1,56.4,229.2,61.2,235z"/>
	</g>
	<path class="st3" d="M35.8,228.4l-6,22.7c38.1-13.7,61.3-39.3,61.3-39.3L35.8,228.4z"/>
	<g>
		<path class="st4" d="M98.1,111.4c0,0-14.6,16.4-24.6,6.1c0,0-2.6-5.6,1.1-10.2c3.7-4.7,9.5-8.5,12.1-10
			c5.6-3.2,19.8-20.8,20.2-21.6s7.8-9.9,9.6-14.8c6.1-16.4,11.3-25.4,11.3-25.4l7.9,1c0,0-9.9,36.2-13.6,44
			C115.5,94.6,98.1,111.4,98.1,111.4z"/>
	</g>
	<path class="st5" d="M86.3,158l3,5.6c3.4-1.8,4.1-6.9,4.1-6.9L86.3,158z"/>
	<path class="st5" d="M19.5,112.9c-7.6,17.7-9,44.7-7.7,65c0.9,13.2,2.9,23.5,5.3,26.6c6,7.8,18.5,2.7,18.5,2.7
		c4-9.5,5.9-18.7,6.4-27.5C44.1,141.8,19.6,112.9,19.5,112.9z"/>
	<path class="st6" d="M11.8,177.9c0.9,13.2,2.9,23.5,5.3,26.6c6,7.8,18.5,2.7,18.5,2.7c4-9.5,5.9-18.7,6.4-27.5L11.8,177.9z"/>
	<path class="st4" d="M145,17.9c-1.5,2.5-4.3,8.7-4.3,8.7l0,0c0,0.1,0,0.1,0,0.2c-0.9,4.4-4.4,8.5-4.7,9.2c-0.5,1-1.1,3.2-1.1,3.2
		l-7.2-0.9c0,0,0.9-4.5-1.2-6.2c-1.7-1.4-3.1-4.5-3.5-5.5c-0.5-1.3-3.6-4.7-2.1-5.3s5.4,5.4,6.4,6.5c0.9,1,1.4-4,2.2-5.9
		c0.6-2.2,3.5-13,4.4-13.6c1-0.7,1.7-0.4,1.4,0.9c-0.2,1-2.1,9-2.8,11.9c0,0,0.1,0,0.2,0c1.6-3.3,6.5-13.9,7.1-14.5
		c0.4-0.4,1.8,0.1,1.7,0.8c-0.1,0.6-4.1,11-5.6,14.7h0.1c1.6-3.4,6-12.8,6.6-13.1c0.7-0.3,1.9,0.4,1.5,1.5
		c-0.3,0.9-3.8,9.8-5.1,13.1l0.1,0.1c1.4-2.6,4.8-8.6,5.5-8.6C145.2,15.1,146.4,15.5,145,17.9z"/>
	<g>
		<path class="st4" d="M-22.5,223.1c0,0-2.2,6.5-2.8,9.3c-0.7,2.8-1.8,2.2-2.2,1.9c-0.7-0.5,2.1-11.3,2.1-11.3s-5.2,13.2-5.6,14.3
			c-0.5,1.1-1.9,0.8-2.1,0.1c-0.3-0.8,4.5-15.3,4.5-15.3s-6,15.1-6.4,15.7c-0.4,0.6-1.8,0-1.8-0.6c0-0.9,5.1-16.5,5.1-16.5
			s-5.9,10.5-6.6,11.6c-0.7,1.1-1.4,0.8-1.7-0.3s6.2-13.3,6.2-13.3L-22.5,223.1z"/>
	</g>
	<g>
		<g>
			<path class="st4" d="M-17.8,210.3c0,0-1.3,2.1-1.9,2.7c-0.5,0.6-0.4,6.1-2.8,9.9s-11.7-1.8-11.7-3.3c0-1.4,4.1-6.6,2.6-6.5
				c-1.5,0.1-8.4,1.9-9.1,0.4s3.9-1.8,5.2-2.4c1-0.4,4.1-1.7,6.4-1.6c2.7,0.2,5.1-3.7,5.1-3.7L-17.8,210.3z"/>
		</g>
	</g>
	<path class="st7" d="M46.4,102.5c0,0-19.2,7-26.4,10.6c-3.4,1.7,0,22,0,22s7.2,30.3,10.3,43.5c2.3,10.3,2.6,55.1,2.6,55.1
		c32.2,0.7,59.3-22.9,59.3-22.9c3.2-5.7-4-41.6-2.8-49.4c1.3-7.8,1.2-28.4,0.5-33.3c-0.7-4.9-5.5-26.1-7.8-27.7
		c-5.9,3.6-19.2,1-19.2,1L46.4,102.5z"/>
	<path class="st8" d="M64.6,100.1c-0.6-1.4-1-2.8-1.2-3.9c-0.3-1.3-0.3-2.3-0.1-2.5c0,0-25.6-20-21.6-10.7s4.7,19.7,4.7,19.7
		c15.7,5,20.1,2.5,20.1,2.5C65.4,102.7,65.7,103.2,64.6,100.1z"/>
	<path class="st9" d="M63.3,96c0,0-10.6,1.7-17.2-5.2c0.1,0.1,3.2,8.4,18.4,9.3C64,98.7,63.5,97.2,63.3,96z"/>
	<g>
		<path class="st4" d="M29.4,138.3c0,0,18.7-26.9,5-31.2c0,0-16.5,3.5-18.3,10.7c-1.6,6.4-4,14-4.4,16.5c-1,6.4-9.8,27-10.4,27.7
			c-0.6,0.7-4.5,10.8-7.5,15.1c-10.8,15.5-18.5,29.5-18.5,29.5l6,5.2c0,0,26.3-29.9,32.1-36.2C21.5,166.8,29.4,138.3,29.4,138.3z"/>
	</g>
	<path class="st7" d="M46.4,102.7c0,0-7.8,0.1-22.1,7S9.6,137.8,9.6,137.8l20.5,3.6L46.4,102.7z"/>
	<g>
		<path class="st5" d="M42.9,149c1.4-7.2,1.1-14.5-1-21.8c-3.5-12.3-10.9-20.1-11.2-20.4l-4.4,1.9c0,0,8,8.4,11.2,19.7
			c4.3,15.1,0.5,29.8-11.4,43.8l3.2,3.1C36.4,167,41.1,158,42.9,149z"/>
	</g>
	<path class="st7" d="M75.9,102.2c0,0,11.7,45.7,13.9,32.6c2.7-15.7,10.3-21.8,10.3-21.8l-9.6-18.6
		C81.2,101.7,75.9,102.2,75.9,102.2z"/>
	<g>
		<path class="st5" d="M82.5,99.7l-4.3,1.9c0.1,0,4.7,5,7.6,13.7c2.7,8.1,5.8,19.7,4,43.3l3.6-1.9C98,113.5,83.1,100.4,82.5,99.7z"
			/>
	</g>
	<path class="st8" d="M40.7,103.6c0,0,13.6,29.6,30,23.3c12.6-4.8-2.4-24.7-2.4-24.7C50.2,99.7,40.7,103.6,40.7,103.6z"/>
	<g>
		<path class="st4" d="M37.5,73.3c1.5,7.5,6.7,16.9,12,20.7c5.3,3.8,24.2,7.4,23.2-18c-0.9-23-13.6-24.4-13.6-24.4
			C34,45.4,36.1,65.8,37.5,73.3z"/>
	</g>
	<g>
		<path class="st5" d="M35.1,55c-9.6,11.6,8.6,32.4,8.6,32.4c-2.1-12.8,6.4-22.5,16.4-26c10-3.4,11.8,4.8,11.8,4.8
			C68.1,43.6,44.7,43.5,35.1,55z"/>
	</g>
	<g>
		<path class="st10" d="M73.6,70.9c-3.1,0.2-16-8.5-16-8.5C72.7,55.2,73.6,70.9,73.6,70.9z"/>
	</g>
	<path class="st4" d="M45.1,83.9c-1.2,1.3-5.8-5.7-5.2-9.3c0.6-3.5,3.7-0.9,4.8,1.2C46.7,79.8,46.4,82.7,45.1,83.9z"/>
	<path class="st5" d="M30.7,106.8c-2.5,0.3-4.4,1.9-4.4,1.9C28.1,108.7,30.6,106.8,30.7,106.8z"/>
</g>
</svg>
