<?xml version="1.0" encoding="utf-8"?>
<!-- Generator: Adobe Illustrator 24.2.1, SVG Export Plug-In . SVG Version: 6.00 Build 0)  -->
<svg version="1.1" id="Layer_1" xmlns="http://www.w3.org/2000/svg" xmlns:xlink="http://www.w3.org/1999/xlink" x="0px" y="0px"
	 viewBox="0 0 187 338" style="enable-background:new 0 0 187 338;" xml:space="preserve">
<style type="text/css">
	.st0{fill:#D9935C;}
	.st1{fill:#F1A34F;}
	.st2{fill:#D86713;}
	.st3{fill:#CB7D45;}
	.st4{fill:#233862;}
	.st5{fill:#EE9849;}
	.st6{fill:#E58638;}
	.st7{fill:#2B478B;}
	.st8{fill:#B64C41;}
	.st9{fill:#466AA5;}
	.st10{fill:#D37129;}
	.st11{opacity:0.4;fill:#D86713;enable-background:new    ;}
</style>
<g>
	<g>
		<path class="st0" d="M107.4,89.3c0.1-3.3,0.2-5.8,0.3-7c0-0.6,0-0.9,0-0.9s0.4,0.2,1.1,0.7c4.2,2.9,19.6,16.5,22.6,57.4
			c0.5,6,0.6,12.6,0.5,19.8c0,0,27.9-13.6,34.6-21.5l6.5,5.6c0,0-25.3,35.7-48.3,41.5C105.5,189.8,106.5,114.2,107.4,89.3z"/>
		<path class="st0" d="M173,143.4c0,0,8.8-7.8,11.3-13.9c2.5-6.2-2.8-15.1-4.4-15.4c-1.6-0.3-7.1,3.3-9.9,6
			c-2.8,2.6-3.4,16.6-3.5,17.6L173,143.4z"/>
		<g>
			<path class="st1" d="M159.9,138.5l1.2-28.9c0-0.5,0.4-0.9,0.9-0.9l15.1,0.6c0.5,0,0.9,0.4,0.9,0.9l-1.2,28.9
				c0,0.5-0.4,0.9-0.9,0.9l-15.1-0.6C160.3,139.3,159.9,138.9,159.9,138.5z"/>
			<path class="st2" d="M163.2,137.8l1.1-27.5c0.1-0.8,0.8-1.5,1.7-1.5l13.7,0.6c0.8,0.1,1.5,0.8,1.5,1.7l-1.1,27.5
				c-0.1,0.8-0.8,1.5-1.7,1.5l-13.7-0.6C163.8,139.5,163.1,138.7,163.2,137.8z"/>
		</g>
		<path class="st0" d="M181.3,130.3c0,0-1.1-1-4.7-3.1c-3.6-2.1-8-9.6-3.9-13.1c4.2-3.5,8.3,1.1,8.3,1.1L181.3,130.3z"/>
	</g>
	<path class="st3" d="M74.6,343.9c0,0,0.2-11.1,0.6-27.5c0.1-3.9,0.2-8.1,0.3-12.5c0.6-25.4,1.2-58,1.4-82l2.4-0.3l52.2-6.1
		c0,0,2.6,33.7-8.5,84.9c-3.5,15.9-8.2,33.4-14.8,52.2c-8.1,23.1-10.6,47.2-10.8,67.7c0,0.8,0,1.6,0,2.4c0,1.9,0.1,3.8,0.1,5.6
		c0.1,0.9,0.1,1.8,0.1,2.6c0.7,23.7,4.2,40.3,4.2,40.3l-9.3,0.6c0,0-3.9-7.9-8.6-20.4c-0.3-0.8-0.6-1.6-0.9-2.5
		c-0.5-1.2-0.9-2.4-1.3-3.6c-0.3-1-0.7-1.9-1-2.9c-0.2-0.5-0.3-1-0.5-1.5c-0.3-1-0.7-2-1-3.1c-1.6-4.9-3.1-10.2-4.5-15.8
		C68.2,396.1,64.5,365.5,74.6,343.9z"/>
	<path class="st4" d="M99.1,58.9c5.1,3.9,15.2,2.9,15.2,2.9c-0.4-0.5-0.8-2.1-0.8-2.1c0.4,1,2.2,1.7,2.2,1.7c1.3,0,3.9-1.3,3.9-1.3
		s-9.4,0-7.1-28.7C114.8,2.6,90,4.5,90,4.5c-29.3-6-32.1,48-27.7,51.3c4.3,3.3,14.9,2.9,14.9,2.9c-0.6-0.5-1.2-1.8-1.2-1.8
		c3.2,2.6,12.6,1.7,12.6,1.7c-11.4-12.1,1-22.6,1-22.6C88.2,41.9,94.1,55.2,99.1,58.9z"/>
	<path class="st0" d="M129.1,204.4c-14.3-45.8,1.9-72.9,0.3-95.8c-1.2-17.2-19.2-29.8-19.2-29.8s-1.4-0.3-2.9-0.4
		c-1.2-0.6-1.5-5.9-1.5-11.2c0-6.3,0.5-13,0.5-13L85,50l-1.3-0.2C83.8,66.1,79,76.3,76.2,77c-10.1,2.1-26.4,32.5-22.2,60.6
		c0.5,3.5,1.4,7.1,2.6,10.5c5.3,14.5,8,20.5,7.9,26c-0.2,7-4.9,13.3-14.8,35.4C44.3,221.8,143.6,251.2,129.1,204.4z"/>
	<path class="st3" d="M85,50c2.6,6,8.8,16.9,20.7,17.2c0-6.3,0.5-13,0.5-13L85,50z"/>
	<path class="st4" d="M114.1,45.5l2-6.6c7.9-19.4,0.9-26.5-4-29.8C106,4.9,99.5,4.3,99.5,4.3C77.1,1.1,74,23.4,75.1,29.4
		c1.5,8.4,7.7,18.3,7.7,18.3L114.1,45.5z"/>
	<path class="st0" d="M119.2,24.3c-1.4-5.8-4.9-12.5-22.9-11.5S82,25.6,82,43.1c0,17.6,28.2,17.1,28.2,17.1
		C117.5,59.6,120.7,30.2,119.2,24.3z"/>
	<path class="st4" d="M83.7,16.1c-1.9,12.6-11,19.8-11,19.8s5.2,3.1,17,0.1s19.5-23.6,19.5-23.6C103.4,2.6,83.6,16.1,83.7,16.1z"/>
	<path class="st4" d="M118.5,14.5c6.5,7.9,0.7,21.9,0.7,21.9c-2.7,0.4-3.3-8.8-4.7-13.3c-1.4-4.5-7.2-9.1-7.2-9.1
		S111.5,6.2,118.5,14.5z"/>
	<path class="st0" d="M30.1,178.5c0.9-2.1,2.6-12.1,4.9-25c4.1-23.1,10-55.6,15.8-68.4c0.7-1.5,2.7-2.8,5.3-3.9
		c7.9-3.3,21.5-4.7,21.5-4.7l-7.1,30.7l-2.1,9c0,0-6.3,22.3-11.2,40.5c-2.3,8.7-4.4,16.6-5.2,20.5c-2.5,12-30.4,58.3-30.4,58.3
		l-8.5-2.5C19.7,217,27.5,184.4,30.1,178.5z"/>
	<path class="st4" d="M104.1,15.7C102.8,30,87.9,43.2,87.9,43.2c14.9-7,20.4-28.5,20.4-28.5S105.4,1.5,104.1,15.7z"/>
	<path class="st0" d="M54.8,351.6c0.2-0.6,0.4-1.2,0.3-1.8l0,0c-0.9-4.6-4.6-25.2-7.3-50c-1.9-17.6-3.3-37.4-2.7-55
		c0.6-16.8,2.9-31.4,8.2-40.4l53,2.6c0,0-2,48-7.8,92.1c-3.5,26.7-8.3,51.9-14.9,64.2c-4.4,8.2-8.3,35.3-11.1,60.8
		c-3,26.8-7.1,50.3-7.1,50.3l-4.5-4.1c0,0-13.2-20.7-16.2-52.8C42.7,396.3,44.2,372.5,54.8,351.6z"/>
	<path class="st5" d="M107.2,78.1c0,0,18.9,3.6,21.8,9.1c2.9,5.5,1.1,58.7,7,64.1c1.3,1.2,8.9,1.2,8.9,1.2s0.7,5.3,0.2,12
		c-0.8,10.7-4.9,25.2-20.4,27.5c-12.7,1.8-17-27-18.2-56.1C105.3,107.1,107.2,78.1,107.2,78.1z"/>
	<path class="st6" d="M116.2,116c0,0,11.9,37.5,15.7,43.3c2.7,4.1,9.4,5,13.2,5.2c-0.8,10.7-4.9,25.2-20.4,27.5
		c-12.7,1.8-17-27-18.2-56.1C111.5,124.3,116.2,116,116.2,116z"/>
	<path class="st4" d="M74.5,344.1c0,0,8-8.2,8.4-24.6c7-11.6,14.1-20.4,15.6-20.3c14.1,1.2,19,2.3,24.5,1.2
		c-3.5,15.9-8.2,33.4-14.8,52.2c-8.1,23.1-10.6,47.2-10.8,67.7c0,0.8,0,1.6,0,2.4c0,1.9,0.1,3.8,0.1,5.6c0.1,0.9,0.1,1.8,0.1,2.6
		c0.7,23.7,4.2,40.3,4.2,40.3l-9.3,0.6c0,0-3.9-7.9-8.6-20.4c-0.3-0.8-0.6-1.6-0.9-2.5c-0.5-1.2-0.9-2.4-1.3-3.6
		c-0.3-1-0.7-1.9-1-2.9c-0.2-0.5-0.3-1-0.5-1.5c-0.3-1-0.7-2-1-3.1c-1.6-4.9-3.1-10.2-4.5-15.8C68.2,396.1,64.5,365.5,74.5,344.1z"
		/>
	<path class="st7" d="M54.8,351.6c0.2-0.6,0.4-1.2,0.3-1.8l0,0c-0.9-4.6-4.6-25.2-7.3-50c29.2,6.6,45.8,1.3,50.7-0.7
		c-3.5,26.7-8.3,51.9-14.9,64.2c-4.4,8.2-8.3,35.3-11.1,60.8c-3,26.8-7.1,50.3-7.1,50.3l-4.5-4.1c0,0-13.2-20.7-16.2-52.8
		C42.7,396.3,44.2,372.5,54.8,351.6z"/>
	<path class="st7" d="M45.4,219.7c4.1-13.6,19.1-45.5,19.1-45.5c3.4,1.1,6.8,1.9,10.2,2.6c24.3,4.7,48.3-1.3,48.3-1.3
		s2.8,9.3,8.8,28.9c6,19.5,3.9,57.1,3.9,57.1c-25.2,9.5-53.5,8.5-73.7,5.7c-16.3-2.3-27.4-5.7-27.4-5.7S41.2,233.3,45.4,219.7z"/>
	<path class="st4" d="M45.4,219.7c4.1-13.6,19.1-45.5,19.1-45.5c3.4,1.1,6.8,1.9,10.2,2.6c0.8,0.6,1.7,1.3,2.6,2
		c0,0,14.6,71.4-15.3,88.4c-16.3-2.3-27.4-5.7-27.4-5.7S41.2,233.3,45.4,219.7z"/>
	<path class="st5" d="M39.2,109.5L39.2,109.5c6.5-15.5,11.7-27.1,12.2-28c1.5-2.5,21.3-4.9,24.2-4.9c2.1,0,3.2-7,3.7-10.8
		c0.1-1,1.3-1.6,2.2-1c3,2,6.2,3.5,9.3,4.5c6.2,2,12,2.1,15.2,1.3c1.6-0.5,3.2,1,2.8,2.7c-0.4,2-0.5,4.2,0.6,5.3
		c5,4.9,17.5,16.2,19.9,21.7c4.8,11-6.3,75.2-6.3,75.2c-27.3,14.4-58.5-1.3-58.5-1.3s0-0.7-0.1-1.5c0-0.7-0.1-1.5-0.2-2.1
		c-0.2-1.3-5.9-15-5.9-15s-0.2,1.1-0.6,2.9c-2.1,10-9.3,42.9-13.7,45.9c-2.6,1.7-10.8,1.7-18.5-0.4c-8-2.2-15.5-6.7-15.5-14
		C10,180.7,27,138.4,39.2,109.5z"/>
	<path class="st6" d="M68.5,116.2c4.6,0.6,18.3,27.1,18.9,36.4c0.5,9.3-3.7,27.9-13.4,25c-3.5-1-6.8-2.7-9.6-5
		c0-0.7-0.1-1.5-0.2-2.1c-0.2-1.3-5.9-15-5.9-15S63.9,115.7,68.5,116.2z"/>
	<path class="st6" d="M58.3,155.5c0,0-0.2,1.1-0.6,2.9C57.8,157.5,58,156.5,58.3,155.5z"/>
	<g>
		<path class="st8" d="M64.3,174.6l-0.8-6.3c36.8,13.7,60.6-0.6,60.8-0.7l-1.1,8.4c-0.5,0.4-7.9,6.5-25.6,6.5
			C88.3,182.5,78.4,179.9,64.3,174.6z"/>
	</g>
	<path class="st6" d="M39.2,109.4c-0.6,2-24.7,81.5-13.7,94.6c-8-2.2-15.5-6.7-15.5-14C10,180.7,27,138.4,39.2,109.4z"/>
	<path class="st6" d="M79.4,65.8c0.1-1,1.3-1.6,2.2-1c3,2,6.2,3.5,9.3,4.5c-1.8,4.6,6.3,9.4,9.8,11c3.7,1.7,1,3.4,1,3.4
		c-11.3,2.2-26.1-7.2-26.1-7.2C77.7,76.5,78.9,69.5,79.4,65.8z"/>
	<g>
		<path class="st4" d="M82.1,477.7c0,0,0.5-1.3,1.1-3c1-2.8,2.2-7,1.8-9.3c-0.3-1.6,0-2.9,0.5-3.9c0.6-1.3,1.4-1.9,1.4-1.9
			s4.2,5,6.6,2.9c4.7-4,5.8-4.3,6-4.3h0.1c0,0,10.4,6.5,13.1,9c4.9,4.3,10.1,5,12.8,5.8c1.1,0.4,2,1.2,2.4,2.2
			c0.6,1.5,1.2,3.6,0.6,4.5h-25.1l-0.1-0.1c-0.3-0.3-1.7-1.6-4.8-1.2c-2,0.3-3.5,0.9-5.5,1.2h-5.9C82,478.9,82.1,477.7,82.1,477.7z"
			/>
		<path class="st9" d="M87.1,459.5c0,0,4.2,5,6.6,2.9c4.7-4,5.8-4.3,6-4.3h0.1c0,0-5,6.9-7.7,6.5c-2-0.2-5-2.2-6.4-3.2
			C86.3,460.2,87.1,459.5,87.1,459.5z"/>
		<path class="st9" d="M82.2,477.6c0,0,0.5-1.3,1.1-3c1.5,0.7,7.8,3.3,12,2.3c4.9-1.1,8.3,0.4,9.5,1.2c1.2,0.8,21.3,1.2,21.7,0.6
			c0.4-0.5,0.6-4.2,1.4-3.5c0.6,1.5,1.2,3.6,0.6,4.5h-25.1l-0.1-0.1c-0.3-0.3-1.7-1.6-4.8-1.2c-2,0.3-3.5,0.9-5.5,1.2h-5.9
			C82,478.9,82.2,477.6,82.2,477.6z"/>
	</g>
	<g>
		<path class="st4" d="M50.5,477.7c0,0,0.5-1.3,1.1-3c1-2.8,2.2-7,1.8-9.3c-0.3-1.6,0-2.9,0.5-3.9c0.6-1.3,1.4-1.9,1.4-1.9
			s4.2,5,6.6,2.9c4.7-4,5.8-4.3,6-4.3H68c0,0,10.4,6.5,13.1,9c4.9,4.3,10.1,5,12.8,5.8c1.1,0.4,2,1.2,2.4,2.2
			c0.6,1.5,1.2,3.6,0.6,4.5H71.7l-0.1-0.1c-0.3-0.3-1.7-1.6-4.8-1.2c-2,0.3-3.5,0.9-5.5,1.2h-5.9C50.3,478.9,50.5,477.7,50.5,477.7z
			"/>
		<path class="st9" d="M55.5,459.5c0,0,4.2,5,6.6,2.9c4.7-4,5.8-4.3,6-4.3h0.1c0,0-5,6.9-7.7,6.5c-2-0.2-5-2.2-6.4-3.2
			C54.6,460.2,55.5,459.5,55.5,459.5z"/>
		<path class="st9" d="M50.6,477.6c0,0,0.5-1.3,1.1-3c1.5,0.7,7.8,3.3,12,2.3c4.9-1.1,8.3,0.4,9.5,1.2c1.2,0.8,21.3,1.2,21.7,0.6
			c0.4-0.5,0.6-4.2,1.4-3.5c0.6,1.5,1.2,3.6,0.6,4.5H71.7l-0.1-0.1c-0.3-0.3-1.7-1.6-4.8-1.2c-2,0.3-3.5,0.9-5.5,1.2h-5.9
			C50.3,478.9,50.6,477.6,50.6,477.6z"/>
	</g>
	<g>
		<path class="st10" d="M-19.5,294.2c-13.1,17.6-6.7,29.8-6.7,29.8s37,10,48.5,11s13.8-18.5,14.2-26.3c0.4-7.8-2.6-18.7-1.6-25.6
			c1-6.8-0.5-16.3-16-20.9c-9.2-2.7-16.6-1.2-21.2,0.5c-2.8,1.1-4.9,3.5-5.5,6.4C-8.8,274.2-11.7,283.7-19.5,294.2z"/>
		<g>
			<g>
				<path class="st10" d="M2.5,253.9c1.8-1.8,4.1-2.4,6.9-2c2.7,0.5,4.6,1.8,5.7,4c1.6,3.2,0.7,7,0.7,7.2l-3-0.7
					c0,0,0.5-2.4-0.4-4.2c-0.7-1.3-1.9-2.1-3.7-2.4c-1.9-0.3-3.4,0.1-4.5,1.1c-1.4,1.4-1.8,3.5-1.8,3.5l-3.1-0.3
					C-0.7,259.9-0.1,256.3,2.5,253.9z"/>
			</g>
			<g>
				<path class="st1" d="M-27.1,292.4c6.8-9.2,9.9-17.6,11.2-23.1c0.1-0.7,0.3-1.4,0.4-2c0.6-3,2.7-5.4,5.5-6.4
					c4.5-1.7,12-3.2,21.2-0.5c12.5,3.6,15.9,10.6,16.2,16.7c0.1,1.5,0,2.9-0.2,4.2c-1,6.9,2.1,17.8,1.6,25.6
					c-0.4,7.8-2.6,27.3-14.1,26.3s-48.5-11-48.5-11S-40.2,310.1-27.1,292.4z"/>
				<path class="st11" d="M6.3,322.5c-10.6-2.9-5.4-18.9-5.4-18.9l22.3,5C21.2,319.1,16.8,325.3,6.3,322.5z"/>
				<path class="st10" d="M0.9,303.5c0,0,3.2,6.6,10.2,8.3c7,1.8,12.1-3.2,12.1-3.2L0.9,303.5z"/>
				<path class="st11" d="M-20.5,316.4c-10.6-2.9-5.4-18.9-5.4-18.9l22.3,5C-5.6,313.1-10,319.2-20.5,316.4z"/>
				<path class="st10" d="M-25.9,297.4c0,0,3.2,6.6,10.2,8.3c7,1.8,12.1-3.2,12.1-3.2L-25.9,297.4z"/>
				<path class="st11" d="M-9.9,260.9c4.5-1.7,12-3.2,21.2-0.5c12.5,3.6,15.9,10.6,16.2,16.7c0,0-9.2,11-25.3,7.9
					c-9.5-1.8-15.1-9.6-18-15.7c0.1-0.7,0.3-1.4,0.4-2C-14.9,264.4-12.8,262-9.9,260.9z"/>
				<path class="st2" d="M0.5,286.2l0.4-1.7c0.2-1,1.2-1.6,2.2-1.4l0,0c1,0.2,1.6,1.2,1.4,2.2L4.1,287c-0.2,1-1.2,1.6-2.2,1.4l0,0
					C0.9,288.2,0.3,287.2,0.5,286.2z"/>
			</g>
		</g>
	</g>
	<path class="st0" d="M21.6,235.5c0,0-3.2,6.3-3.3,6.9c-2,11-5.2,15.6-8.6,15.6s-8-3.7-7-9.7c0.6-3.3,3.1-7.3,5.8-9
		c2.6-1.6,5.2-7.7,5.2-7.7L21.6,235.5z"/>
</g>
</svg>
