<?xml version="1.0" encoding="utf-8"?>
<!-- Generator: Adobe Illustrator 24.2.1, SVG Export Plug-In . SVG Version: 6.00 Build 0)  -->
<svg version="1.1" id="Layer_1" xmlns="http://www.w3.org/2000/svg" xmlns:xlink="http://www.w3.org/1999/xlink" x="0px" y="0px"
	 viewBox="0 0 131 147" style="enable-background:new 0 0 131 147;" xml:space="preserve">
<style type="text/css">
	.st0{fill:#ED985F;}
	.st1{fill:#233862;}
	.st2{fill:#FFB27D;}
	.st3{fill:#B5453C;}
	.st4{fill:#DD6D22;}
	.st5{fill:#9E332E;}
	.st6{fill:#ED7D2B;}
	.st7{fill:#F99746;}
	.st8{fill:#FFFFFF;}
	.st9{fill:#86D1CD;}
	.st10{fill:#FCECDB;}
	.st11{fill:#F4D2B8;}
</style>
<g id="girl_2_3_">
	<path class="st0" d="M26.4,47.7c2.2,1.4,24.8,7.9,31.4,7.3c6.7-0.7,25.9-11.7,25.9-11.7l0.6-4.3c0,0-24.9,7.4-28.9,7.6
		s-26.3-9.5-26.3-9.5C22.8,38.5,24.2,46.3,26.4,47.7z"/>
	<path class="st1" d="M37.6,12.5c1,7.5-5.7,14.1-2.6,17.2c3.1,3.1,1.3,6.5,1.3,6.5c-0.2-2.3-1.5-4.4-1.5-4.4
		c2.9,4.8-3.1,15.8-3.1,26.9S1.1,85.5,1.1,85.5c-0.6-1.9-1.1-2.9-4.7-4.2c-3.6-1.4-4.5-7-4.5-7c-1,2.6,1.3,6.1,1.3,6.1
		s-5.5-6.4-1.6-12.8s0.6-7.6,1.2-22c0.6-14.4,7.3-13.2,10.1-16C5.7,26.9,6.1,8.2,13.5,2.8c4.1-3,12.3-1.4,12.3-1.4
		C33.3,1.7,37,7.3,37.6,12.5z"/>
	<path class="st2" d="M27,37.5L27,37.5c0,0-0.4-0.1-1.1-0.3c-0.4-0.5-0.4-2.6-0.2-4.7c0.2-2.7,0.6-5.6,0.6-5.6l-9.1-2.5l-0.5-0.1
		c-0.5,6.3-2.4,10.4-3.7,11.4c-0.7,0-1.6,0.1-2.4,0.2c-0.8,0.1-2.3,0.3-3.9,1.2c1.6,6.7,6.1,16.5,17.6,13.8c3.1-0.7,5.5-1.8,7.5-3.2
		C29.8,42.1,27.2,37.8,27,37.5z"/>
	<path class="st0" d="M17.2,24.5c1,2.7,3.3,7.6,8.5,8.1c0.2-2.7,0.6-5.6,0.6-5.6L17.2,24.5z"/>
	<path class="st2" d="M32.9,14.4c-0.5-2.6-1.8-5.6-9.6-5.7c-7.8-0.1-6.6,5.1-7.1,12.7c-0.5,7.6,11.7,8.3,11.7,8.3
		C31.1,29.7,33.3,17,32.9,14.4z"/>
	<path class="st1" d="M34.6,18.7c-1.2,0.1-3.2-3-3.7-5c-0.3-1.4-1.7-3-2.4-3.7c-0.3,0.9-3.4,9.2-9.7,11.6c0,0,3-2.3,5.3-5.6
		c-1.3,1.3-2.8,2.3-4.4,2.6c-5.3,0.9-7.4-0.6-7.4-0.6s4.2-2.8,5.4-8.2c0,0,4.7-5.1,11.1-1c0.8-0.6,2.3-1,4,1.4
		C35.4,13.8,34.5,18.8,34.6,18.7z"/>
	<path class="st3" d="M-3.6,103.3c0.2,12.4,30.6-12,30.6-12s-5.9-10.4-0.7-21.9c6.1-13.6,7.1-16.2,6.4-22.1c3.9-1.7,6.5-6.4,6.5-6.4
		s-5.2-2.7-7.1-3.1c-3.4-0.7-6.2-0.4-6.2-0.4c1.1,0.8,0.6,1.7-0.7,2c-0.1,0-0.2,0-0.2,0c-2.7,0.5-9.3-3.7-11-4.8
		c-5.5-0.2-10.6,0-11.9,2.6c-3.6,7.2,0,29.8,1.1,35.4C4.6,79.8-3.7,93.7-3.6,103.3z"/>
	<path class="st4" d="M11.6,97.6c0.4-4.5,22.7-47.3,36-46.9c13.3,0.5,8.7,15.7,8.7,15.7c-1.9,4.7-8.7,5.4-10.6,9.6
		c-7.8,17.1-9.1,33.2-12.6,38.4c-0.2,0.2-0.4,0.5-0.5,0.7c-1,1.4-2.4,2.3-4.1,2.5C2.7,120.6,11.1,102.1,11.6,97.6z"/>
	<path class="st5" d="M74.3,113.1c-1.1-0.8-4.6-4.8-5.4-5.7c-0.9,0.5-1.9,0.9-2.8,1c-1.2,0.1-2.3-0.2-3.2-0.6
		c0.8,1.5,1.2,2.6,0.1,4.4c-1.2,2.1-0.5,5.1-0.5,5.1h18.9C81,113.7,75.5,114,74.3,113.1z"/>
	<path class="st5" d="M26.3,47.6c12.9,1.9,8.4,27.2-7.6,22.5S5.2,43,5.2,43S13.4,45.9,26.3,47.6z"/>
	<path class="st6" d="M44.8,50.8c-4.6,3.1-4.5,15.2-4.5,21.6c0,13.1,12.9,29.4,19.3,35.1c0.9,0.8,2.9,2.7,4.1,3c0,0,8.9-2.4,6.4-6.6
		c-7.9-13.2-12.4-40.1-13.5-48.7C56.2,51.8,47.6,48.9,44.8,50.8z"/>
	<path class="st7" d="M-2.5,97.7c1.4-4.3,26.7-48.3,40-47.9c13.3,0.5,6.1,16.8,6.1,16.8c-1.9,4.7-7.1,4.1-9,8.3
		c-1.1,2.4-2.1,4.7-3,7c-3,7.5-5.4,14.7-7.5,20.5c-1.9,5.6-3.5,9.9-5,12.1c-1.2,1.8-1.9,2.8-1.9,2.8C-11.8,121.8-4,102.4-2.5,97.7z"
		/>
	<path class="st3" d="M60.4,113.1c-1.1-0.8-4.6-4.8-5.4-5.7c-0.9,0.5-1.9,0.9-2.8,1c-1.2,0.1-2.3-0.2-3.2-0.6
		c0.8,1.5,1.2,2.6,0.1,4.4c-1.2,2.1-0.5,5.1-0.5,5.1h18.9C67.1,113.7,61.6,114,60.4,113.1z"/>
	<path class="st6" d="M26.3,69.2c2.9,2,4.6,6.9,5.4,12.6c-3,7.5-5.4,14.7-7.5,20.5C19.3,90.9,26.3,69.2,26.3,69.2z"/>
	<path class="st7" d="M38.5,51.3C33.9,54.4,26.4,66,26.4,72.4c0,13.1,12.9,29.4,19.3,35.1c0.9,0.8,2.9,2.7,4.1,3
		c0,0,8.9-2.4,6.4-6.6c-7.9-13.2-9.5-40.7-10.6-49.3C45.1,51.2,41.3,49.4,38.5,51.3z"/>
	<g>
		<path class="st5" d="M87.6,29.7l-7.1,17c-0.2,0.5-0.7,0.8-1.2,0.8l-19.2-0.8c-0.8,0-1.4-0.9-1.1-1.7l6.9-18.2
			c0.2-0.5,0.7-0.9,1.3-0.8l19.4,2C87.4,28.1,87.9,29,87.6,29.7z"/>
		<path class="st3" d="M89.3,29.8l-7.1,17c-0.2,0.5-0.7,0.8-1.2,0.8l-19.2-0.8c-0.8,0-1.4-0.9-1.1-1.7l6.9-18.2
			c0.2-0.5,0.7-0.9,1.3-0.8l19.4,2.1C89.1,28.3,89.6,29.2,89.3,29.8z"/>
		<path class="st5" d="M75.9,37.9c-0.6,0-0.9-0.5-0.7-1.2s0.9-1.2,1.6-1.2c0.6,0,0.9,0.5,0.7,1.2C77.3,37.4,76.5,37.9,75.9,37.9z"/>
		<path class="st5" d="M86.9,30.5c-0.4,0-0.5-0.3-0.4-0.6c0.1-0.3,0.5-0.6,0.8-0.6c0.4,0,0.5,0.3,0.4,0.6
			C87.6,30.3,87.2,30.5,86.9,30.5z"/>
	</g>
	<path class="st2" d="M3.9,47.6c2.2,1.4,21.5,8.5,33,8.6c5.8,0.1,26.9-13.5,26.9-13.5s2.5-1.2,4.4-0.8c1.9,0.3,6.4,0,7.4-1.6
		c1-1.6-2.3-2.7-3.4-2.9c-0.7-0.1-2.1-0.7-3.6-1.1c0.5-0.3,1-0.8,1.1-1.2c0.3-0.8,0.5-1.1-0.4-0.8s-4,1.7-4,1.7
		c-1.8,0.5-3.4,3-3.4,3s-21.7,7.7-24.3,7.8c-4,0.2-30.9-9.7-30.9-9.7C0.4,38.5,1.8,46.3,3.9,47.6z"/>
	<path class="st2" d="M84.5,41.4c-0.4,0.1-1.9-1.5-2.3-3.3c-0.4-1.6-0.4-4.2,1.5-3.8c0.7,0.1,2.6,3.2,2.6,3.2
		C86.7,39.1,84.9,41.2,84.5,41.4z"/>
	<path class="st2" d="M83.7,43.4c3.3-1.8,2.7-5.3,2.7-5.3L83.7,43.4z"/>
	<path class="st8" d="M28.4,26.5c-2.4-0.1-2.6-1.4-2.6-1.4c3.2-0.3,4.4,0.2,4.4,0.2S29.7,26.6,28.4,26.5z"/>
	<path class="st3" d="M3.1,37.8c-6.8,9.3,6.8,13.5,6.8,13.5c8.3-1.7,10.7-9.3,10.7-9.3C9.8,32.9,3,37.9,3.1,37.8z"/>
</g>
<g>
	<g>
		<path class="st9" d="M-61.4,133.6v-4.8c0-7.3,5.9-13.2,13.2-13.2h79.7v32.1h-78.9C-55.1,147.7-61.4,141.4-61.4,133.6z"/>
		<path class="st10" d="M16.2,134.5v-6.1c0-7.1,5.7-12.8,12.8-12.8h91.2v32.1H29.3C22,147.7,16.2,141.8,16.2,134.5z"/>
		<path class="st9" d="M8.3,145.7V145c0-1.1,0.9-2,2-2h112.6c1.1,0,2,0.9,2,2v0.7c0,1.1-0.9,2-2,2H10.4
			C9.2,147.7,8.3,146.8,8.3,145.7z"/>
		<path class="st9" d="M8.3,118.4v-0.7c0-1.1,0.9-2,2-2h112.6c1.1,0,2,0.9,2,2v0.7c0,1.1-0.9,2-2,2H10.4
			C9.2,120.4,8.3,119.5,8.3,118.4z"/>
	</g>
	<polygon class="st11" points="120.2,132.5 107.5,132.2 120.2,131.7 	"/>
	<polygon class="st11" points="120.2,137.6 90.2,137.2 120.2,136.7 	"/>
</g>
</svg>
