<?xml version="1.0" encoding="utf-8"?>
<!-- Generator: Adobe Illustrator 24.2.1, SVG Export Plug-In . SVG Version: 6.00 Build 0)  -->
<svg version="1.1" id="Layer_1" xmlns="http://www.w3.org/2000/svg" xmlns:xlink="http://www.w3.org/1999/xlink" x="0px" y="0px"
	 viewBox="0 0 298 233" style="enable-background:new 0 0 298 233;" xml:space="preserve">
<style type="text/css">
	.st0{opacity:0.5045;}
	.st1{opacity:0.5045;fill-rule:evenodd;clip-rule:evenodd;fill:#F2F2F2;enable-background:new    ;}
	.st2{fill-rule:evenodd;clip-rule:evenodd;fill:#E1E9D9;}
	.st3{opacity:0.2;fill-rule:evenodd;clip-rule:evenodd;fill:#C1DEE2;enable-background:new    ;}
	.st4{opacity:0.7;}
	.st5{opacity:0.7;fill-rule:evenodd;clip-rule:evenodd;fill:#69A1AC;enable-background:new    ;}
	.st6{opacity:0.7;fill-rule:evenodd;clip-rule:evenodd;fill:#89C5CC;enable-background:new    ;}
	.st7{opacity:0.5;}
	.st8{opacity:0.5;fill-rule:evenodd;clip-rule:evenodd;fill:#69A1AC;enable-background:new    ;}
	.st9{opacity:0.5;fill-rule:evenodd;clip-rule:evenodd;fill:#C1DEE2;enable-background:new    ;}
	.st10{opacity:0.5;fill-rule:evenodd;clip-rule:evenodd;fill:#89C5CC;enable-background:new    ;}
	.st11{fill-rule:evenodd;clip-rule:evenodd;fill:#F2F2F2;}
	.st12{fill-rule:evenodd;clip-rule:evenodd;fill:#D9DFD1;}
	.st13{fill-rule:evenodd;clip-rule:evenodd;fill:#FDC2A4;}
	.st14{fill-rule:evenodd;clip-rule:evenodd;fill:#F5B290;}
	.st15{fill-rule:evenodd;clip-rule:evenodd;fill:#102775;}
	.st16{fill-rule:evenodd;clip-rule:evenodd;fill:#FFC9B1;}
	.st17{fill-rule:evenodd;clip-rule:evenodd;fill:#193387;}
	.st18{fill-rule:evenodd;clip-rule:evenodd;fill:#0C2063;}
	.st19{fill-rule:evenodd;clip-rule:evenodd;fill:#00B1BF;}
	.st20{fill-rule:evenodd;clip-rule:evenodd;fill:#0399AA;}
	.st21{fill-rule:evenodd;clip-rule:evenodd;fill:#008594;}
	.st22{fill-rule:evenodd;clip-rule:evenodd;fill:#FFD6C4;}
	.st23{fill-rule:evenodd;clip-rule:evenodd;fill:#FF6600;}
	.st24{fill-rule:evenodd;clip-rule:evenodd;fill:#60CCBC;}
	.st25{fill-rule:evenodd;clip-rule:evenodd;fill:#FC7361;}
</style>
<g class="st0">
	<path class="st1" d="M286.2,110.8c39.7,28.2,1.5,81.2-81.7,94.8c-83.2,13.6-179.9-5.9-175.9-35.7S246.5,82.5,286.2,110.8z"/>
</g>
<path class="st2" d="M142.7,34.9c-0.3,0.4-1.1,3.2-1.4,3.2c2.6,0,7.3,0,8.6-3c1.2-2.8-1.7-4.1-3.8-3
	C144.8,32.8,143.6,33.7,142.7,34.9z M121.6,85.8C121.5,85.8,121,86.2,121.6,85.8L121.6,85.8z M142.8,46.6c-0.6,0.2-2.1,1.1-3.2,2
	c0.2-0.7,0.3-1.3,0.4-2c0.4-2.8,0.7-5.5,0.9-8.3c0.1-1,0-2.1-0.1-3.2c0-0.1,0.1-0.2,0.1-0.3c0,0.3,0,0.3,0.1,0.1
	c1.1-1.6,2.1-3.5,2.2-5.6c0.1-1.8-1.4-5.1-3.4-2.8c-0.9,1-0.7,8.3,0.7,8.7c-0.4,2.3-0.8,4.7-1.4,7.1c-0.1,0-0.2,0-0.3,0
	c0-0.5,0-1.2,0-1.4c-0.2-1.9-1.8-5.7-4.3-5c-1.9,0.6-0.8,3-0.1,4c1.1,1.7,2.3,2.4,3.8,3.3c0,0.3,0.2,0.5,0.5,0.6
	c-1,3.8-2.3,7.5-4.1,11c-0.2-1.1-0.5-2.5-0.7-2.8c-0.8-1.3-2.7-3-4.5-2.2c-3.7,1.7,0.3,6.6,3.4,7.1c0.1,0.2,0.3,0.3,0.4,0.4
	c-0.7,1.1-1.3,2.1-2,3.1c-1,1.5-2.1,3-3.3,4.5c0-1.2-0.5-3.8-0.6-4.1c-0.8-1.8-3.1-3.5-5-2.3c-2.1,1.3-0.2,3.9,1,5.1
	c0.5,0.5,2.9,2.3,3.8,2.3c-2.9,3.5-6,7-9.2,10.4c0.3-1.5,0.6-5.6,0.6-6.1c-0.2-2.4-1.7-6.2-4.8-5.3c-2.9,0.9-1.6,4.8-0.6,6.7
	c0.6,1.1,1.5,2.3,2.5,3.1c0.4,0.3,1.1,0.5,1.4,0.8c0.4,0.3,0.2,0.8,0.6,1.1c-1.8,1.8-3.5,3.6-5.2,5.3c-0.8,0.8-1.7,1.6-2.5,2.4
	c-0.5-0.2-1.1,0.1-1.1,0.7c0,0,0.1,0.1,0.1,0.2c-0.6,0.5-1.3,1.1-1.9,1.7c0-0.1,0-0.4,0-0.7c0.6,0.9,0.3-1.1,0.4-1.6
	c0.2-1.5,0.6-2.9,0.6-4.4c-0.1-2.2-1.4-5.8-4.3-4.5c-2.7,1.2-1.7,4.4-0.7,6.4c0.6,1.3,1.5,2.4,2.4,3.5c0.4,0.5,0.9,1.4,1.2,1.6
	c-3.5,3.1-7.2,6.2-10.8,9.3c0-0.2-0.1-0.4-0.1-0.6C95.8,96,95.9,96,96,96c0.4-2.1,3.4-13.5-2.8-11.5c-4.2,1.4-1.2,9.8,1.9,12.7
	c-1.9,1.6-3.8,3.3-5.6,5c-1.3,1.2-2.6,2.5-3.8,3.8c0.6-1.7,1.2-3.9,0.8-5.7c-0.6-2.5-3.3-5-5.9-3.5c-5,2.8,3.3,7,4.3,10
	c-3.9,4.3-7.3,9.1-9.5,14.6c-2.4,5.9-4.7,13.9-3.4,20.6c-0.3-3.4,1-7.6,1.7-10.2c1.1-4,2.5-7.9,4.5-11.5c3.1-5.8,7.2-10.8,12-15.3
	c1.7,0.6,3.7,2.1,4.7,2.5c1.8,0.8,5.3,1.9,6.5-0.6c1.1-2.5-1.8-3.9-3.6-4.4c-1.7-0.5-3.3-0.4-4.9,0c3-2.7,6-5.2,9.1-7.8
	c2.8,2.2,6.7,8.6,10.1,5.3c3.9-3.8-3.5-7.7-6.7-7.4c-0.4,0-0.7,0.1-1.1,0.2c3.3-2.8,6.5-5.6,9.5-8.6c1.8,0.3,6.9,8,10.4,4.6
	c1.8-1.7,1.2-4.3-0.5-5.8s-4.1-1.5-6.2-1c-0.9,0.2-1.7,0.6-2.5,1.1h-0.1c2.9-3,5.9-6,8.8-9.2c0.1,0,0.1,0,0.2,0
	c0.1,0.2,0.4,0.2,0.7,0.2c2.3,0.8,5.5,2,7.9,1.5c1.7-0.4,3.2-1.7,1.8-3.4c-1.2-1.3-4.3-1.1-5.8-0.8c-1.1,0.2-2.3,1-3.4,1.6
	c-0.1-0.1-0.2-0.2-0.4-0.3c2.8-3.2,5.5-6.5,8-9.9c2.6,0.4,6.1,3.3,8.3,0.6c2.4-2.7-2-4.4-4.1-4.1c-0.7,0.1-1.4,0.3-2.1,0.6
	c1.8-2.8,3.1-5.8,4.1-9c0.1,0,0.1,0,0.1,0c-0.1,0-0.1,0-0.1,0c0.1-0.4,0.2-0.7,0.3-1c0.2-0.1,0.3-0.2,0.4-0.2
	c-0.9,0.6,3.1,0.9,3.8,1c1.7,0.1,3.9,0.2,5.1-1.2c1-1.2,0.9-2.8-0.3-3.8C146.7,44.5,144.3,45.2,142.8,46.6z M72.6,144.3
	c-0.4-0.8-0.5-1.6-0.6-2.6C72.2,142.6,72.3,143.4,72.6,144.3z"/>
<path class="st3" d="M227.6-24c0.2,0.3,0.8,2.3,1,2.3c-1.9,0.1-5.3,0-6.2-2.1c-0.9-2,1.2-2.9,2.7-2.1C226-25.4,226.9-24.8,227.6-24z
	 M242.6,13.1C242.6,13.1,243.1,13.5,242.6,13.1L242.6,13.1z M227.4-16c0.4,0.2,1.5,0.8,2.3,1.5c-0.1-0.4-0.2-0.9-0.3-1.4
	c-0.3-2-0.6-4-0.7-6c0-0.7,0.1-1.5,0.1-2.3c-0.1,0-0.1-0.1-0.1-0.2c0,0.2,0,0.2-0.1,0.1c-0.8-1.2-1.5-2.6-1.6-4.1c0-1.3,1-3.7,2.5-2
	c0.7,0.8,0.5,6-0.5,6.3c0.2,1.8,0.6,3.5,1,5.2c0.1,0,0.1,0,0.2,0c0-0.4,0-0.8,0-1c0.1-1.4,1.3-4.1,3.1-3.6c1.4,0.4,0.6,2.2,0.1,2.9
	c-0.8,1.3-1.7,1.8-2.8,2.4c0,0.3-0.2,0.5-0.4,0.5c0.7,2.8,1.7,5.5,3,8c0.2-0.8,0.4-1.8,0.5-2c0.6-1,2-2.2,3.3-1.6
	c2.7,1.2-0.2,4.7-2.5,5.1c-0.1,0.1-0.2,0.2-0.3,0.3c0.4,0.7,0.9,1.5,1.4,2.2c0.7,1.1,1.5,2.2,2.4,3.3c0.1-0.9,0.4-2.8,0.5-3
	c0.5-1.2,2.2-2.5,3.6-1.6c1.5,1,0.1,2.9-0.8,3.7c-0.4,0.3-2.2,1.6-2.8,1.6c2.1,2.5,4.4,5.1,6.7,7.5c-0.2-1.1-0.4-4.1-0.4-4.4
	c0.2-1.7,1.3-4.4,3.5-3.8c2.2,0.7,1.2,3.5,0.5,4.9c-0.4,0.8-1,1.7-1.6,1.9c-0.3,0.2-0.8,0.4-1.1,0.6c-0.2,0.2-0.1,0.6-0.4,0.8
	c1.3,1.3,2.6,2.6,3.8,3.8c0.6,0.6,1.2,1.1,1.8,1.7c0.4-0.1,0.8,0,0.8,0.5c0,0.1,0,0.1,0,0.2c0.5,0.5,0.9,0.9,1.4,1.3
	c0-0.1,0-0.3,0-0.5c-0.4,0.6-0.3-0.9-0.3-1.2c-0.1-1.1-0.4-2.1-0.4-3.2c0-1.5,1-4.1,3.1-3.2c1.9,0.8,1.2,3.2,0.5,4.6
	c-0.4,0.9-1,1.7-1.7,2.5c-0.3,0.4-0.7,1-0.9,1.2c2.6,2.3,5.3,4.5,7.9,6.8c0-0.1,0.1-0.3,0.1-0.4c0,0.1-0.1,0.1-0.2,0.1
	c-0.3-1.5-2.5-9.8,2-8.3c3,1,0.9,7.1-1.4,9.2c1.4,1.2,2.8,2.4,4.1,3.6c1,0.9,1.9,1.8,2.8,2.8c-0.4-1.2-0.9-2.8-0.6-4.1
	c0.4-1.8,2.4-3.6,4.3-2.5c3.6,2-2.5,5.1-3.2,7.2c2.9,3.2,5.4,6.6,7,10.6c1.8,4.3,3.4,10.1,2.5,14.9c0.1-2.4-0.8-5.6-1.3-7.4
	c-0.8-2.8-1.9-5.7-3.3-8.3c-2.3-4.3-5.3-7.8-8.8-11.1c-1.3,0.4-2.8,1.5-3.5,1.8c-1.3,0.6-3.9,1.4-4.7-0.4c-0.8-1.7,1.3-2.7,2.6-3.1
	c1.3-0.4,2.4-0.3,3.6,0c-2.2-1.9-4.5-3.7-6.7-5.6c-2,1.7-4.9,6.3-7.4,3.9c-2.9-2.8,2.6-5.6,4.9-5.4c0.3,0.1,0.5,0.1,0.8,0.2
	c-2.4-2-4.7-4-6.9-6.2c-1.3,0.3-5.1,5.8-7.6,3.4c-1.3-1.2-0.8-3.1,0.4-4.2s3-1.1,4.5-0.7c0.6,0.1,1.2,0.4,1.8,0.8c0.1,0,0.1,0,0.1,0
	c-2.2-2.2-4.4-4.4-6.5-6.7H241c-0.1,0.2-0.3,0.2-0.5,0.2c-1.7,0.6-4,1.4-5.7,1c-1.2-0.2-2.3-1.2-1.3-2.4c0.8-1,3.1-0.8,4.2-0.6
	c0.8,0.2,1.7,0.8,2.5,1.2c0.1-0.1,0.2-0.2,0.3-0.2c-2.1-2.3-4.1-4.7-5.9-7.2c-1.8,0.3-4.4,2.3-6,0.4c-1.7-2,1.5-3.2,3-3
	c0.5,0.1,1,0.2,1.5,0.4c-1.3-2-2.3-4.2-3-6.5c-0.1,0-0.1,0-0.1,0c0.1,0,0.1,0,0.1,0c-0.1-0.2-0.1-0.5-0.2-0.7
	c-0.1,0-0.2-0.1-0.3-0.1c0.7,0.4-2.3,0.7-2.8,0.7c-1.2,0-2.8,0.1-3.7-0.9c-0.8-0.8-0.7-2,0.2-2.7C224.4-16.8,226.1-16.3,227.4-16z
	 M278.5,55c0.3-0.5,0.4-1.1,0.5-1.7C278.9,53.9,278.7,54.5,278.5,55z"/>
<g class="st4">
	<path class="st5" d="M111.9,127.5c-3.6,10.6-13.1,26.9-26.6,23.8c3.1-5.3,6.5-10.9,9.5-16.1c0.6-1.1,1.4-2.4,2-3.7
		c0.5-1,2.9-6.2,0.3-3.6c-1.3,1.4-2.4,4.9-3.4,6.8c-0.6,1.1-1.6,2.9-2,3.7c-8.1,14.7-20.5,26-23,43.3c-0.6,4.4-0.1,8.3,0.4,12.7
		c0.1,0.7,0.8,2.8-0.8,2.5c-1.5-0.2-1.6-4-1.8-5c-1.2-8.2,0.9-16.9,4.2-24.4c2.3-5.2,5.5-9.6,9-14c1.8-2.3,2.3-2.1,1.4-4.7
		c-0.7-2.1-1-5.3-0.5-7.5c0.9-3.4,4.1-6.2,5.7-9.5c1.6-3.4,2.8-7,3.4-10.7c0.7-4.7,0.5-9.3,1-14c0.7-6.5,8-9.9,13.9-9.6
		C118.6,98.2,115,118.8,111.9,127.5z"/>
	<path class="st6" d="M5,109.4c1.5,10.3,6,24.1,16.7,27.8c3.9,1.3,7.5,1.8,10.8,4.5c1.9,1.6,3.5,3.6,5.1,5.7l0,0
		c5.1,7.5,12.6,13.9,22.3,10.7c-0.2-0.3-0.4-0.7-0.6-1.1c-0.4-0.8-0.9-1.8-1.3-2c-2.7-4.5-6-9.1-8.8-12.7c-1.3-1.6-4.4-4.6-4.7-6.1
		c-0.6-3.1,3.6,2.6,3.6,2.6c3.9,5,7.7,10.2,11,15.6l0,0c0,0.5,0.5,1.2,1,1.9c0.2,0.3,0.3,0.5,0.5,0.7c0.1,0,0.2,0.1,0.2,0.2
		c0.1-0.1,0.1-0.1,0.1-0.1c0,0.1,0.1,0.1,0.1,0.1c0.6,1.3,1.2,2.5,1.8,3.8c5.4,12.2,5,24.1,4.6,37.1c-0.1,2.7-1,6.7-0.3,9.3
		c0.9,2.8,1.4,0.1,1.5-1.6c0.3-6.2,0.6-12.5,0.8-18.7c0.3-10.3-2.2-20.7-6.6-30.1c1.2-0.8,2.3-2.5,2.8-3.4c1.7-3.2,1.3-7.1-0.2-10.4
		c-1.1-2.6-2.7-4.7-4.5-6.5c-0.9-1.9-2.2-3.6-3.9-5.3c-5.6-5.4-8.5-11.2-9.8-18.8c-0.9-5-1.1-10.1-2.7-15
		c-2.9-9.2-9.3-15.7-19.2-16.5C11.4,80,3.4,97.8,5,109.4z"/>
	<path class="st6" d="M43.6,47.3c-0.1,0.7-0.6,1.2-0.6,2c0,0.4,0.4,1.2,0.5,1.6c0.3,1.7,0.3,3.4,0.4,5c0.4,5.2,1.1,10.3,2,15.4
		c1.2,7,2.8,14.1,5.4,20.7c2.2,5.8,5.1,14.7,10.8,18.1c1.4,0.9,3.1,0.8,4.5,1.5c1.4,0.7,0.9-0.1,1.3,1.7c0.4,1.7,0.5,3.5,0.7,5.2
		c1.2,11.5,0.8,23.1,0.9,34.7c0.1,7.1-0.1,14.1-1,21.1c-0.1,1.2-2.2,8.7-1.5,9.8c1.2,1.9,2.6-6.3,2.6-6.6c0.6-3.7,1-7.5,1.2-11.2
		c0.7-10.5,0.4-21.1,0.3-31.6c-0.1-16.1-3-31.7-7.3-47.1c-3.9-13.8-8.8-28.4-19-39C44.4,48.2,44,47.8,43.6,47.3z"/>
	<path class="st6" d="M36.8,189.5c0,17.5,14.2,31.7,31.7,31.7s31.7-14.2,31.7-31.7"/>
	<path class="st5" d="M65.7,186.7c-0.9-8-4.5-20.6-13.6-22.6c-0.8-0.2-3.7,0.1-6.2,0.4c-0.9,0.3-1.7,0.7-1.9,1.2
		c-0.7,1.6,3.8-0.4,4.3-0.5c2.6-0.5,4.4,0,4.1,3.1c-0.2,2.3-2,3.6-3.6,5c-1,0.9-2.1,1.6-3.1,2.5c-4.4,3.8-5.1,8.6-5.2,14.1
		c-0.1,4.2-0.4,11.3-6.1,11.2c-4.6,0-7.3-5.4-8.6-9.2c-1.8-5.6-2.3-12.6,0.7-17.9c3.8-6.6,12.6-12.9,20.4-12.3
		c0.9,0.1,1.7,0.3,2.4,0.7c1.5-0.1,2.8,0,3.1,0c9.2,1.3,13.4,13,14.7,20.9c0.3,2.1,0.5,4.2,0.6,6.3H66
		C66,188.8,65.9,187.9,65.7,186.7z"/>
</g>
<g class="st7">
	<path class="st8" d="M244.7,49.2c3.7,7.2,8.2,16.5,10.7,24.2c2,6.4,4.1,22.6,6.1,41s6.1,74.6,5.6,82.7c0,1.6-1.8,1.3-1.7,0
		c1.1-14.2-5.2-87.7-7.8-101.6c-0.6-3-1-6.7-2.2-9.5c-0.9-2,0.2-1.2-1.8-2.2c-1.6-0.9-3.7-1.1-5.4-2.1c-3.7-2.2-6.4-5.8-8.7-9.4
		c-4.5-7-7.7-14.2-8.7-22.4c-0.5-4.5-1-9-0.9-13.6c0-1.2-0.5-7.4,1.2-6.8c2.6,0.9,6,7.5,7.8,10.1C241.1,42.7,243,45.9,244.7,49.2z"
		/>
	<path class="st9" d="M226.5,135.5c11.4,9.2,19.8,22,27.2,33.7c7.4,11.7,13.7,24.6,15.3,38c-1.1-6.3-5.3-13-8.5-18.8
		c-3.7-6.8-7.8-13.5-11.9-20.1c-4.1-6.7-8.1-13.5-12.8-20c-2.3-3.1-4.6-6.1-7.1-9.1c-0.8-0.9-1.7-2.1-2.6-3.2
		c-1.4,1.6-3.9,2.3-6.3,0.4c-4.3-3.5,0.9-10.1,5.6-6.6C227.6,131.4,227.6,133.8,226.5,135.5z"/>
	<path class="st8" d="M315.5,104c-0.6,4.5-1.8,8.9-3,13.3c-2.3,7.9-6.6,14.6-12,20.8c-2.7,3.2-5.9,6.4-9.9,8
		c-1.9,0.7-3.9,0.6-5.7,1.2c-2.1,0.7-0.9,0-2.1,1.9c-1.6,2.6-2.6,6.2-3.6,9.1c-4.7,13.3-8.1,27.1-9.2,41.3
		c-0.1,1.3,0.6,10.5-1.5,10.2c-2.4-0.3-0.8-12.1-0.6-13.6c0.8-8.1,2.2-16.2,4.3-24.1c3.4-12.9,8.2-25,14.1-36.8
		c3.6-7.2,7.9-14.2,12.7-20.7c2.2-3.1,4.6-6,7.2-8.7c2.2-2.3,6.5-8.3,9.2-8.8C317.1,96.8,315.7,102.9,315.5,104z"/>
	<path class="st10" d="M308.4-8.7c0.1,0.1,0.2,0.2,0.3,0.3c-1.6,0.3,2.3,26.3,2.3,28.7c0.1,12.4-2.5,25.5-8.9,36.2
		c-2.7,4.6-6.3,9.3-10.3,12.9c-2.1,1.9-4.5,3.6-7,4.9c-1.2,0.6-5.2,1-6,1.8c-0.8,0.8-0.9,4.5-1.1,5.7c-0.7,4.1-1.4,8.3-2.1,12.4
		c-1.4,8.4-2.9,16.9-3.8,25.5c-0.9,8.9-1.7,17.6-1.9,26.5c-0.5,18.6-3.5,38.2-0.4,56.7c-6.2-18.2-4.3-39.9-3.4-58.8
		c1-18.7,4.2-37.2,7.7-55.6c2.2-11.9,4.5-23.9,7.7-35.6C286.8,33.6,295,14.5,305-2.8C306.1-4.8,307.3-6.8,308.4-8.7z"/>
	<path class="st10" d="M201.4,62.9c1.8,1.5,3.5,3,5.1,4.7c5.7,6,10.7,13,14.9,20.2c1.5,2.7,2.7,6.9,5.4,8.2c2.5,1.2,6,1,8.7,1.6
		c7.5,1.1,12,4.7,13.5,12.4c1.4,6.9,1.5,14.7-0.1,21.7c-0.4,1.8-1.3,3.4-1,5.1c0.4,2.4,1.9,5.2,2.9,7.4c4,9.1,7.8,18.2,10.7,27.7
		c3.9,13,7.1,27,7,40.7c-3.8-23.2-11.2-45.6-20.3-67.2c-2.7-6.4-5.6-12.7-8.5-19c-2.5-5.3-5.2-10.4-8-15.5c-1.4-2.5-1.6-3.8-4.1-4.5
		c-4-1.1-7.4-2-10.9-4.4c-7.1-5-13.1-12.5-16.6-20.4c-1.6-3.6-2.8-7.4-3.5-11.3c-0.5-2.5-0.9-5-0.9-7.5c0-1.6,0.7-3-0.5-4.2
		c2.5,1.2,0.1-0.7,1.1-0.5c-0.5-0.1,0.5,1.5,0.7,1.7C197.8,60.9,200.2,62,201.4,62.9z"/>
	<path class="st9" d="M281.6,197.8c1.2,0.2,2,1.3,1.8,2.5l-2.1,14c-0.6,4.2-4.3,7.4-8.6,7.4h-9.6c-4.3,0-8-3.1-8.6-7.4l-2.1-14
		c0-0.1,0-0.2,0-0.3c0-1.2,1-2.2,2.2-2.2h26.6C281.3,197.8,281.4,197.8,281.6,197.8z"/>
</g>
<path class="st11" d="M284.2,204.9c0,9.2,0.7,16.7,10.5,16.7c9.8,0,10.5-7.5,10.5-16.7"/>
<path class="st11" d="M279.5,185.9c0.7,0.8,1.2,1.9,1.7,2.7c0.8,1.1,1.5,2.3,2.3,3.4c1.6,2.5,3.1,5,4.4,7.6c1.4,2.7,2.4,5.6,3.3,8.5
	c0.2,0.6,0.4,1.3,0.7,2c-0.1,0.8-0.2,1.6-0.3,2.4c0.1-0.5,0.3-1,0.5-1.5c-0.2,1.1-0.3,2.3-0.4,3.4c-0.1,1.4,0.3,3.3-0.1,4.7
	c1.1-4,2.8-7.7,4.6-11.5c1.8-2.3,4.1-4.5,6-6.6c1.7-1.7,3.4-3.4,5-5.2c1.4-1.5,2.7-3.4,4.7-4.4c-5.9,2.4-10.1,6.6-13.3,11.2
	c0.3-0.7,0.6-1.4,0.9-2.1c1.2-2.9,2.5-5.9,3.9-8.8c0.6-1.4,1.3-2.8,2.1-4.1c0.4-0.6,1.4-1.5,1.8-2.1l0,0c0.1,0,0.3-0.2,0.3-0.3
	c-0.5-1-6.9,5.3-7.4,5.9c-2,2.5-3.7,5.3-4.9,8.2c-0.1,0.1-0.1,0.3-0.2,0.5c0-0.7,0-1.3-0.1-2c-0.4-2.6-1.2-5.2-2.2-7.7
	c-0.7-1.7-1.4-5.1-3.5-6.2c-0.4-0.2-0.4,0.9-0.4,0.8c0-0.2,0.1-0.8,0.5-0.5c1.4,1.3,1.3,4.2,1.7,5.9c0.5,2.3,1.1,4.6,1.4,6.9
	c0.2,1.3,0.3,2.7,0.3,4c-0.3-0.6-0.6-1.3-1-1.9C288.9,194.2,284,190,279.5,185.9z"/>
<path class="st2" d="M19.4,20.2C14,29,10.2,37.9,9.2,48.3c-0.1,1.3-0.7,5.5,1.3,3.3c1.1-1.2,0.9-7.4,1.2-9
	c1.1-5.6,3.4-10.8,6.2-15.8c1-2,2.2-3.8,3.3-5.7c0.3-0.1,0.6-0.2,1-0.4c1.7-1.1,3.3-5.9,4.3-7.6c0.7-1.2,1.5-2.3,2.2-3.4
	c1.8-2.6,3.7-5.2,5.6-7.8l0,0c1.8-2.5,3.7-5,5.7-7.3c0,0,3.9-5.4,4.8-4c0.8,1.3-3,4.2-3.7,5c-7,7.7-12.7,16.9-17.7,26
	c5.3,0.7,9.6-1.2,13-5.5c2.3-2.9,3.4-6.8,5.2-10c2.3-4,5.1-6.3,9.3-8C58.4-5,62.2-10.1,63-18.4c0.7-6.7-1-14.1-7.1-17.8
	c-4-1.9-9.1,0.4-12.1,3.1c-4.1,3.7-5.4,9.2-6.7,14.4C34.9-9.9,31.6-6.1,25.5-0.1C22.3,3,19.3,6.4,18,10.7
	C17.4,12.5,17.7,18,19.4,20.2z"/>
<path class="st12" d="M82.5,25c-4.2,1.5-6.3-0.7-10.1-1.8c-1.5-0.4-2.9-0.5-4.4-0.3c-2.1,0.4-4.2,1.6-6.4,2.1
	c-2.5,0.6-4.9-0.5-5.9-2.8c3.6-2.3,7.5-3.8,11.7-4.5c2.2-0.4,4.5-0.6,6.8-0.6c0.5,0,3.6,0.4,3.6-0.4c0-0.9-1.9-0.5-2.5-0.5
	c-4.5,0-9,0.6-13.3,2c-4.1,1.4-7.5,3.9-11.3,6c-1.8,1-9.7,6.7-10.4,5.9c-0.7-0.9,7.3-5.7,8-6.1c5.4-3.3,11.4-6.8,17.5-8.7
	c3.7-1.1,7.8-2.1,11.7-2.3c3.2-0.2,8.3,0.3,10.5,2.8C91.1,19.4,85.7,23.8,82.5,25z"/>
<g>
	<path class="st13" d="M186.8,144.1c1.6,33.8,3,65.3,2.6,99.2c9.8,3.7,16.4,5.3,19.6-6.5c7.9-28.8,7.2-52,6.2-81.3
		C214.7,141.7,195.2,144.2,186.8,144.1z"/>
	<path class="st13" d="M123.2,229.6c-14.1,0.1-20.5,9-28.9,13.5c-2-0.8,1.5-7,3.4-10.5c2.2-4,8-4.7,10.3-10.6c2.3-6,0-11.1,6.4-10.3
		c3.4,0.4,5.2,4.1,9,5.2c24.4,7.8,44.5-3.4,69.6,14.8c4.8,2.8,9.4-0.6,12.6,1.8c2.7,2.1,2.6,7.9,0.3,12.9
		c-2.4,5.1-10.6,6.9-19.7,3.2C175.4,245.2,140.3,229.3,123.2,229.6z"/>
	<path class="st14" d="M168.3,228c-14.4-3.9-38.7-2.6-54.9-9.9l-4.5-0.2c0.7-4,0.5-6.9,5.4-6.3c3.4,0.4,5.2,4.1,9,5.2
		c24.4,7.8,44.5-3.4,69.6,14.8c4.9,2.8,7.2-0.6,10.4,1.8c2.7,2.1,4.9,7.9,2.6,12.9c-0.5,1.1-1.2,2-2.2,2.8
		C184.8,236.8,179.3,231.1,168.3,228z"/>
	<path class="st15" d="M112.4,223.9c-4.1,4.3-8.7,11.4-10.6,14.2l-7.6,5.2c-1.9-0.8,1.4-7.6,3.3-11.1c2.2-4,8-4.6,10.3-10.6
		c1.9-4.9,0.9-9,3.7-10.3c4.1-1.8,7.2,0.1,8.9,3.7C117.5,218.3,115.2,221.1,112.4,223.9z"/>
	<path class="st16" d="M131.4,279.8c-10.7,9.1-9.9,20-13.4,28.9c-1.9,0.7-3.3-6.3-4.1-10.2c-0.8-4.4,3.1-8.7,1.1-14.7
		s-7.1-8.5-1.7-12c2.9-1.8,6.6-0.2,10.2-1.8c23.6-9.7,31.8-31.2,62.7-33.5c0.7-0.2,1.3-0.4,1.9-0.6c-6.2-13.9-21.3-42.2-24.5-48.4
		c-7-13.9-5.4-11.5-4.3-24.4l1.4-30.9l15.9-4.6l14.2,41.6c5.5,23.1,10.4,46.3,16.6,69.1c0.2,3.8-0.2,7-1.1,9.3
		c-1.2,1.8-3.2,2.9-5.3,3.5c-2.4,1.1-5.2,2.3-8.4,3.3C181.5,258.1,144.4,268.5,131.4,279.8z"/>
	<path class="st13" d="M179.3,135.6l-4.6-1.2l-6.3,22.6l-3.6,18.2c12.4,23,22.6,40.8,31.2,65.5c-17.2,2.2-17.4,2.6-32.7,10.8
		l-45.4,24.4l-5.9-3.1c0.3-0.3,0.8-0.7,1.3-1c2.9-1.8,6.6-0.2,10.2-1.8c23.6-9.7,31.8-31.2,62.7-33.5c0.7-0.2,1.3-0.4,1.9-0.6
		c-6.2-13.9-21.3-42.2-24.5-48.4c-7-13.9-5.4-11.5-4.3-24.4l1.4-30.9l15.9-4.6L179.3,135.6L179.3,135.6z M119,291.7
		c0.2,0.1,1.6,0.3,3.7,0.6c-2.1,5.7-2.7,11.4-4.7,16.4c-1.9,0.7-3.3-6.3-4.1-10.2c-0.6-2.8,0.8-5.5,1.4-8.7
		C117.2,290.7,118.6,291.4,119,291.7z"/>
	<path class="st17" d="M119.7,282.3c-0.4,6,0.6,14.3,1,17.7l-2.5,8.9c-2,0.7-3.8-6.7-4.6-10.6c-0.9-4.5,3.2-8.7,1.1-14.8
		c-1.7-4.9-5.1-7.4-3.8-10.2c1.9-4,5.5-4.5,9.1-2.9C119.9,274.8,119.9,278.5,119.7,282.3z"/>
	<path class="st17" d="M236.6,56.4c-6.4,6.2-12.6,9.1-20.1,15.3c-6.7,5.6-19,12-20.7,17.3c-1.4,4.4-13.4-9.7-12-23.1
		c2.9,0.5,4.4-1.3,7.9-1.8c4.6-0.6,8.4-0.6,10.8-1.7c10.3-4.9,16.6-9.1,25.3-13.5C241.6,42,244.8,48.5,236.6,56.4z"/>
	<path class="st15" d="M114.8,42.8c0.5-2.7,3.7-4.6,9.6-2.3c8.3,3.2,8.6,4.2,17.4,8.4c5.2,2.4,11.8,3,15.9,5.6
		c4.1,2.7,4.2,4.6,7.5,5.8c4.4,1.3-1.2,12.4-13.9,16.8c0.5-3.8-4-7-7.3-8.9c-9.9-5.7-15.4-9.9-23-16
		C115.6,47.9,114.4,45.1,114.8,42.8z"/>
	<path class="st18" d="M141.1,64c7.4,3.3,15.8,5.9,10.1,11.3c-0.8-3-4.4-5.5-7.1-7.1c-6.9-4-11.7-7.2-16.5-10.9L141.1,64z"/>
	<path class="st19" d="M196.3,191.4l-16.2,7.6c-8.4-21-1-35.8-13.8-68.4l22.6-6.3l17.1,14.1c11.3,8.6,11.8,15,11.3,25.9
		c-0.5,9.3-1,18.3-1.6,27.1H196.3z"/>
	<path class="st20" d="M196,191.5l-5.2-22.3l-14.2-41.6l-15.9,4.6l-1.4,30.9c-1.1,13-2.7,10.5,4.3,24.4c2.7,5.2,5.4,10.3,8.1,15.4
		L196,191.5z"/>
	<path class="st21" d="M177.9,199.9c-4.1-7.9-8.5-15.9-13.2-24.7l3.6-18.2l6.3-22.6l4.7,1.2l-2.7-8l-15.9,4.6l-1.4,30.9
		c-1.1,13-2.7,10.5,4.3,24.4c2.7,5.2,5.4,10.3,8.1,15.4L177.9,199.9z"/>
	<g>
		<path class="st13" d="M171.5,47.4c-0.3,9.6-1.8,13.9-7.5,14.1c-0.2,0-5.8,22.9-0.5,27.1l7,3.1c10.6-0.1,29.6-15,25.4-21.1
			l-10.3-4.4c-1.4-3.4-0.8-9,1.3-15L171.5,47.4z"/>
		<path class="st16" d="M179,49.1c-0.1,2.3-0.3,4.7-0.5,7.3c-0.6,3.1-1,4.7-1.9,7.9c-2.8,9.6-5.4,18.3-8.7,26.2l2.6,1.2
			c10.6-0.1,29.6-15,25.4-21.1l-10.3-4.4c-1.4-3.4-0.5-10,1.6-16L179,49.1z"/>
	</g>
	<path class="st17" d="M184.3,65.8c8.4,2.7,14.9,2.4,19,6.4c4.8,4.8,0.8,4.2-3.1,7.7c-4.3,3.9-6.6,1.3-4.1,8.5
		c-1.9-0.2-4.9-0.9-9.6-2.3L184.3,65.8z"/>
	<polygon class="st17" points="193,101.5 189.4,124.2 214.9,143.6 183.3,154.8 165.4,160 160.3,131.2 147.5,95.4 146.5,84.4 
		148.2,79.1 164.6,60 187.7,66.7 194,82.8 	"/>
	<path class="st15" d="M170.5,100.8c8.8,2.9,15.5,4,22.5,1.2l-3.6,22.2l12.4,9.4c-21.8-10-32.2-14.2-51-29l-3.3-9.3v-0.4
		C152.1,100.5,158.5,100.8,170.5,100.8z"/>
	<path class="st15" d="M176.7,65c-4.6,20.7-8,37.8-4.3,55.5c2.1,9.8,8.1,22.5,13.2,33.5l-28.3,9.4l3-32.2l-12.7-35.6
		c-2-2.3-3.3-5.4-3.3-8.7c0-5.1,2.9-9.6,7.2-11.7L164.6,60l12.4,3.6C176.9,64,176.8,64.5,176.7,65z"/>
	<path class="st18" d="M170.5,100.9l0.4,0.1c-0.2,6.2,0.1,12.3,1.3,18.4c-6.6-3.8-13.2-8.2-21.3-14.6l-3.3-9.2
		c-1.1-1.3-2-2.8-2.6-4.4C149.9,100.3,156.2,100.8,170.5,100.9z"/>
	<circle class="st17" cx="184.6" cy="91.4" r="13"/>
	<g>
		<path class="st22" d="M163.6,22.6c1.4-8.8,5.9-12.5,15.1-12.5c8.4,0,13.5,6,14.9,13.8c0.4,2.1,0.4,4.3,0.3,6.6
			c1.4-2.2,3.1-0.7,2.6,1.9c-0.5,2.1-1.5,4.6-2,7c-0.4,1.6-1,2.8-2.4,2.5c-0.6,2.2-1.4,3.7-2.6,5.7c-1.7,2.7-3,4.2-4.8,5.8
			c-2.7,2.3-4.4,3.5-6.1,3.5c-1.6,0-3.2-1.1-6.2-3.7c-1.4-1.3-2.6-2.7-4-4.7c-1.4-2.1-2.3-4.1-3.1-6.7c-1.4,0.2-1.9-1-2.3-2.6
			c-0.6-2.4-1.6-4.9-2-7c-0.5-2.3,0.8-3.8,2.1-2.5C163,27.5,163.1,25.2,163.6,22.6z"/>
		<path class="st16" d="M163.6,22.4c1.4-8.8,5.9-12.5,15.1-12.5v47h-0.1c-1.6,0-3.2-1.1-6.2-3.7c-1.4-1.3-2.6-2.7-4-4.7
			c-1.4-2.1-2.3-4.1-3.1-6.7c-1.4,0.2-1.9-1-2.3-2.6c-0.6-2.4-1.6-4.9-2-7c-0.5-2.3,0.8-3.8,2.1-2.5C163,27.5,163.1,25.2,163.6,22.4
			z"/>
	</g>
	<path class="st23" d="M191.9,37.9C203.4,4.7,171,1.8,162.4,15.6c-8.3,13.3-3,31.6,9.1,41c-18.4-34.3,9.8-22.6,16.7-37.4
		C191.7,23.9,193,27.4,191.9,37.9z"/>
	<g>
		<g>
			<polygon class="st13" points="147.2,10.7 151.9,16.2 162.7,15 167.7,11.5 165.9,10 172.2,3.5 162.4,0 154.4,3.6 			"/>
			<path class="st16" d="M163.3,14.9l8.3-5.1c-2.8-2.2-4.5-0.3-8,1.3L163.3,14.9z"/>
			<path class="st22" d="M167.5,7.6c1.2-0.8,3.8-2.3,4.5-3.3c0.6-0.9-0.2-1.5-1.1-1.8l-7-2.8c-0.7-0.3-1.1,0.1-2,0.4L160.1,2
				C160,4.2,166.6,7.6,167.5,7.6z"/>
		</g>
		<path class="st13" d="M115.2,46.5c-2.5-3.6,0.2-7.9,3.7-11.1l29.2-25.6l4.1,6.3l-24.1,27.8C123.7,48.3,118.1,49.6,115.2,46.5z"/>
	</g>
	<g>
		<g>
			<g>
				<polygon class="st13" points="230.3,7.6 223.3,9.7 214.9,2.8 212.7,-2.9 215,-3.2 213.3,-12 223.4,-9.6 228.2,-2.3 				"/>
				<path class="st16" d="M214.6,2.4l-4.2-8.8c3.5-0.4,4,2.1,6,5.4L214.6,2.4z"/>
				<path class="st22" d="M215.1-6.1c-0.6-1.4-2-4.1-2-5.3c0-1.1,1-1.2,1.9-0.9l7.3,1.5c0.8,0.2,0.9,0.8,1.5,1.5l0.5,2.6
					C223.1-4.8,215.8-5.6,215.1-6.1z"/>
			</g>
			<path class="st13" d="M237.4,55.1c4.1-1.6,4.2-6.7,3-11.3L230,6.5l-6.9,3l5,36.4C229.4,51.9,233.4,56.2,237.4,55.1z"/>
		</g>
		<path class="st24" d="M235.9,15.9L235.9,15.9c0.2,1.7-1,3.2-2.7,3.4l-9.1,1c-1.7,0.2-3.2-1-3.4-2.7l0,0c-0.2-1.7,1-3.2,2.7-3.4
			l9.1-1C234.2,13,235.7,14.2,235.9,15.9z"/>
		<path class="st25" d="M234.1,22.6l-8.5,3.4c-3.8,1.5-4.5-1.1-0.7-2.6l8.5-3.4C237.2,18.5,237.9,21.1,234.1,22.6z"/>
	</g>
	<path class="st15" d="M196.7,85.8c-4.4-6.4-1.3-5.2,6-8.3l13.2-5.6h0.3c-5.8,4.7-15.3,9.9-19,14.6L196.7,85.8z"/>
</g>
</svg>
