<?xml version="1.0" encoding="utf-8"?>
<!-- Generator: Adobe Illustrator 24.2.1, SVG Export Plug-In . SVG Version: 6.00 Build 0)  -->
<svg version="1.1" id="Layer_1" xmlns="http://www.w3.org/2000/svg" xmlns:xlink="http://www.w3.org/1999/xlink" x="0px" y="0px"
	 viewBox="0 0 127 177" style="enable-background:new 0 0 127 177;" xml:space="preserve">
<style type="text/css">
	.st0{fill:#323657;}
	.st1{fill:#FFCA55;}
	.st2{fill:#EEA886;}
	.st3{fill:#292C47;}
	.st4{fill:#CF8C6C;}
	.st5{fill:#DB9C7C;}
	.st6{fill:#FF556F;}
	.st7{fill:#DBDFF0;}
	.st8{fill:#754836;}
	.st9{fill:#A77860;}
	.st10{fill:#C4C7D6;}
	.st11{fill:#1B1C2E;}
</style>
<g>
	<path class="st0" d="M37.6,42.5c-4.4,3.2-15.4,17.7-24.2,35.4C10,84.8,6.9,92.3,4.7,99.7C0.1,115.4,22.5,115,22.5,115l12.2-31.8
		l16.6-38.9C51.3,44.3,43.7,38,37.6,42.5z"/>
	<path class="st1" d="M13.4,77.9c-3.5,6.8-7.3,14.2-9.5,21.6c-4.6,15.7,18.6,15.4,18.6,15.4l12.2-31.8L13.4,77.9z"/>
	<polygon class="st2" points="125.5,245.3 127.8,248.8 119.2,255.5 116.7,251.9 	"/>
	<polygon class="st2" points="-53.8,225.7 -57.3,227.9 -63.7,219.2 -60.1,216.9 	"/>
	<g>
		<path class="st3" d="M16.4,122.7c-3.9,4.1-7.8,18.2-10.3,29.2l0,0c-1.8,7.7-2.9,13.8-2.9,13.8c10.1,6,29.8,8.7,30.1,8.7l0,0
			c0.8-0.8,1.5-1.7,2.2-2.5c1.3-1.5,2.6-3,3.7-4.4c0.5-0.6,0.9-1.2,1.4-1.8l0,0c1.6-2.1,3.1-4,4.2-5.5c2.1-2.8,3.2-4.5,3.2-4.5
			S19.7,119.3,16.4,122.7z"/>
	</g>
	<g>
		<path class="st2" d="M111.9,95.5c3.9-1.7,7.7-4,8.2-4.6c0.5-0.7,2.2-1.9,2.2-1.9c0.4-1-0.6-1.9-0.6-1.9c0.5-1.4-0.6-2.3-0.6-2.3
			c0.2-1.3-1-2.2-1-2.2s0.1-1.1-0.4-2c-0.6-0.9-1-0.9-1.4-1.1c-0.4-0.2-3.8,0.5-5.9,1.7c-2.1,1.2-3.8,2.4-4.1,3.1
			c-0.3,0.7-1.9,5.4-1.9,5.4C107.5,97.4,111.8,95.5,111.9,95.5z"/>
	</g>
	<g>
		<path class="st4" d="M117.8,92.1c0,0-5.4-1.3-5.1-2c0.3-0.7,0.1-3.2,0.1-3.2C115.8,86.8,117.8,92.1,117.8,92.1z"/>
	</g>
	<g>
		<path class="st2" d="M105.2,96.4c2.1-1.4,6.8-1.6,6.8-1.6s-3.8-8.1-4.6-6.6c-0.8,1.5-2.7,3.3-2.7,3.3S103.2,97.9,105.2,96.4z"/>
	</g>
	<g>
		<path class="st5" d="M118.2,79.4c2.2,0.5,1.8,3.2,1.8,3.2c1.3,1,1,2.2,1,2.2c1.1,0.9,0.6,2.3,0.6,2.3c1.1,1.1,0.6,1.9,0.6,1.9
			s-3.3,2.2-4.3,2.4c-1.1,0.1-1.4-1.3-1.4-1.3c-2.3,0.7-1.9-1.3-1.9-1.3c-2.4,0.4-2.2-1.7-2.2-1.7l1.6-2.3c0,0-0.7-0.1-1.1-1
			c-0.5-0.9,4.8-4.1,4.8-4.1C117.9,79.6,118.2,79.4,118.2,79.4z"/>
	</g>
	<g>
		<path class="st2" d="M109.4,88.7c0,0,2.3-1.2,4.1-1.4c1.8-0.3,2.6-1,2.6-1.6c-0.1-0.5-0.6-0.8-1.1-1c-2.4-0.8-6.6-0.5-6.6-0.5
			C107.5,88.4,109.4,88.7,109.4,88.7z"/>
	</g>
	<g>
		<path class="st3" d="M6,151.9c0,0-6.8,21.9-9.7,28.2c-4.3,9.4-11.5,9.8-23,16.4c-9.3,5.3-34.7,19.9-34.7,19.9l7.8,12.6
			c0,0,37.1-17.3,53-22.2c8.1-2.5,33.9-32.4,33.9-32.4L6,151.9z"/>
	</g>
	<g>
		<path class="st6" d="M40.1,68.8c0,0,17.7,47.3,27,44.8c11.7-3.2,40.1-13.7,43.6-15.7c1.2-0.7-3.7-10.4-3.7-10.4
			s-16.3,4.3-26.4,7.6C70.7,98.4,70,93.6,70,93.6L56.4,59.2L40.1,68.8z"/>
	</g>
	<g>
		<path class="st3" d="M47.9,173.9c0,0,13.6,7.6,19.5,11.2c9.4,5.7,7.8,8,13.9,18.3c5.4,9.3,35.5,50.3,35.5,50.3l10.8-8.2
			c0,0-30.4-51.1-30.8-59.5c-0.4-8.5-24.8-34.4-24.8-34.4L47.9,173.9z"/>
	</g>
	<g>
		<path class="st3" d="M7.4,138.8c2.7,9.3,41.1,35.2,41.1,35.2c10.3-5.8,29.4-16,29.4-16c-11.5-13.2-23.2-27-23.2-27
			S6.1,134.3,7.4,138.8z"/>
	</g>
	<g>
		<path class="st6" d="M75.2,76.9c-1-13.6-9.1-25.8-9.9-26.4c-11-9-11.6-9.9-11.6-9.9c-2.5,1.3-4.8,3-6.9,5
			c-0.7,0.7-1.4,1.4-2.1,2.2c-4.7,5.3-8.2,12.3-9.4,20.1c-0.3,2-0.5,4.2-0.5,6.3c0,1.6,0.6,3.3,0.3,5C33.6,87,29.3,97,24.4,106.8
			c-0.5,0.9-0.9,1.8-1.4,2.7C14.2,126.6,4.1,142,4.1,142c40.7-2.2,54.7-6.4,54.7-6.4c-2.3-5.7,3-16.5,6.7-25.6
			C70.7,97.1,76.4,93.6,75.2,76.9z"/>
	</g>
	<path class="st7" d="M125,269.2c7.5,0,7-2.8,17.4-6.2c10.4-3.4,17.6-6.6,16.3-10.2c-1.3-3.6-18-1.7-20.6-1.6
		c-2.6,0.2-8.3-2.8-9.6-3.9c-1.3-1.1-1.1,1-3,2.5c-1.9,1.5-6.7,5.1-6.7,5.1S122.6,269.2,125,269.2z"/>
	<path class="st7" d="M-77.6,225.2c0.2,7.3,2.9,6.8,6.2,16.9s6.6,17.1,10,15.8c3.4-1.2,1.5-17.5,1.4-20c-0.1-2.5,2.7-8,3.8-9.3
		c1-1.2-1-1-2.5-2.9s-5-6.5-5-6.5S-77.7,223-77.6,225.2z"/>
	<g>
		<path class="st2" d="M59.9,9.6c-3.4,5.5-4.4,20.2-2.1,24C60,37.5,70.1,44,72.6,44.3s6.3-7.4,7.1-7.9c0.8-0.5,4-0.6,3.8-1.7
			c-0.1-1.1-1.7-8.1-0.1-8.6c1.9-0.6,0-7.8,0-7.8C80,5.6,63.2,4.2,59.9,9.6z"/>
	</g>
	<g>
		<path class="st2" d="M56.8,20.5c-0.7,11.1-3.1,20.1-3.1,20.1s11.9,14.7,11.6,11.6c-0.2-1.7,0.4-5.1,0.9-8c0.2-1,0.4-2,0.6-2.8
			c0.2-1,0.4-1.7,0.4-1.7S57.4,9.4,56.8,20.5z"/>
	</g>
	<g>
		<path class="st8" d="M71.3,19.5c-3.7,0.1-2.9,6.6-2.9,6.6s-4.4-0.5-7.2-0.5c-2.5-0.1-5.6,5.9-5.6,5.9s-0.4,2.2-0.9-12
			s7.1-12.9,8.5-12.9S78.6,0.4,83.8,7c5.1,6.7,0,12.7,0,12.7C80.5,17.6,75.1,19.5,71.3,19.5z"/>
	</g>
	<g>
		<path class="st2" d="M61.9,27.8c-0.5-0.2-3.5-7.1,0-8.5c3.6-1.3,3.5,1.5,3.6,2.4C66.5,29.3,62.5,28,61.9,27.8z"/>
	</g>
	<g>
		<path class="st9" d="M58.4,34.8c0.9,1.3,3.9,5.7,7.8,9.4c0.2-1,0.4-2,0.6-2.8C66.8,41.4,60.2,37.1,58.4,34.8z"/>
	</g>
	<path class="st7" d="M64.5,18c-2.8,0-5,2.3-5,5c0,2.8,2.3,5,5,5c2.8,0,5-2.3,5-5S67.3,18.1,64.5,18z"/>
	<path class="st7" d="M62.6,23c-1.9-5.2-1.4-16.4-1.4-16.4c1.8-0.9,3.4-0.4,3.4-0.4c-1.3,3.4,0.9,16.4,0.9,16.4S64.6,28.3,62.6,23z"
		/>
	<path class="st10" d="M64.6,19.3c-2,0-3.7,1.6-3.7,3.7c0,2,1.6,3.7,3.7,3.7c2,0,3.7-1.6,3.7-3.7C68.3,21,66.6,19.3,64.6,19.3z"/>
	<g>
		<path class="st0" d="M60.8,58.5c-5.3-7-11.7-11.3-14-12.7c-0.5-0.3-0.8-0.5-0.9-0.5l-1.4,2.6c0,0,0.1,0,0.2,0.1
			c1.2,0.7,8.3,5,13.8,12.3c7.9,10.6,8.9,22.3,3.1,34.7c-3.7,7.9-9.1,12.9-15.8,14.7c-2,0.6-4.1,0.8-6.1,0.8c-5.6,0-11-1.7-15.3-3.5
			c-0.5,0.9-0.9,1.8-1.4,2.7c4.6,1.9,10.5,3.8,16.6,3.8c2.3,0,4.6-0.3,6.9-0.9c7.7-2,13.6-7.5,17.8-16.3
			C72.2,79.5,66.8,66.5,60.8,58.5z"/>
	</g>
	<path class="st6" d="M26.3,83.5c0,0,2.2,1.5,10.3,2.8c9.1,1.4,19.7,3,19.7,3l-2.4,11.6c-1.6-2.7-39.6,0.1-45-8.4
		c-5.4-8.5,7.3-19.7,7.3-19.7c27-22.5,28.2-34,39.5-23.5c6.9,6.4-2.8,16.9-2.8,16.9L26.3,83.5z"/>
	<g>
		<g>
			<g>
				<g>
					<g>
						<path class="st2" d="M66,101.4c1.3-1,1.2-2.8,1.2-2.8c0.8-1.1,0.7-3,0.7-3c0.5-0.4,0.9-1.1,0.8-2.1c0-0.7-2-2.1-2.2-2.2
							c-0.6-0.3-1.2-1.2-2.3-1.7c-0.1-0.1-0.3-0.2-0.4-0.2C62.4,89,53,89.9,53,89.9l-1,3.5l-1.6,3.5c0,0,5.3,4.4,6.7,5.1
							c1.4,0.6,2.8,0.7,3.4,0.8c0.1,0.1,0.3,0.1,0.6,0.2c0.8,0.3,1.9,0.7,1.9,0.7c0.6,0.2,1.9,0,1.9,0
							C65.9,103.2,65.9,101.4,66,101.4z"/>
					</g>
				</g>
			</g>
		</g>
	</g>
	<path class="st11" d="M21.1,153.7c0,0,7.9,11.9,14.3,18.2c1.3-1.5,2.6-3,3.7-4.4C39.1,167.5,26,157.9,21.1,153.7z"/>
</g>
</svg>
