<?xml version="1.0" encoding="utf-8"?>
<!-- Generator: Adobe Illustrator 24.2.1, SVG Export Plug-In . SVG Version: 6.00 Build 0)  -->
<svg version="1.1" id="Layer_1" xmlns="http://www.w3.org/2000/svg" xmlns:xlink="http://www.w3.org/1999/xlink" x="0px" y="0px"
	 viewBox="0 0 227 321" style="enable-background:new 0 0 227 321;" xml:space="preserve">
<style type="text/css">
	.st0{fill-rule:evenodd;clip-rule:evenodd;fill:#FDC2A4;}
	.st1{fill-rule:evenodd;clip-rule:evenodd;fill:#320200;}
	.st2{fill-rule:evenodd;clip-rule:evenodd;fill:#E09D16;}
	.st3{fill-rule:evenodd;clip-rule:evenodd;fill:#CF8F10;}
	.st4{fill-rule:evenodd;clip-rule:evenodd;fill:#745944;}
	.st5{fill-rule:evenodd;clip-rule:evenodd;fill:#604029;}
	.st6{fill-rule:evenodd;clip-rule:evenodd;fill:#F2B236;}
	.st7{fill-rule:evenodd;clip-rule:evenodd;fill:#FFC9B1;}
	.st8{fill-rule:evenodd;clip-rule:evenodd;fill:#F5B290;}
	.st9{fill-rule:evenodd;clip-rule:evenodd;fill:#FF6600;}
	.st10{fill-rule:evenodd;clip-rule:evenodd;fill:#E35805;}
	.st11{fill-rule:evenodd;clip-rule:evenodd;fill:#D64E00;}
	.st12{fill-rule:evenodd;clip-rule:evenodd;fill:#FFD6C4;}
</style>
<g>
	<path class="st0" d="M125.9,312.9c-8.9,13.9-4.2,25.9-5.1,37.1c-1.9,1.4-5.9-6-8.1-10.1c-2.5-4.7,0.6-10.8-3.8-16.9
		c-4.3-6.1-10.9-7.1-6-12.9c2.5-3,7.3-2.5,10.8-5.5L125.9,312.9z"/>
	<path class="st1" d="M113.6,320.3c1.6,6.9,5.6,16,7.2,19.7l0.2,10.9c-2,1.4-6.6-6.2-8.8-10.4c-2.5-4.7,0.5-11-3.9-17.1
		c-3.6-5-8.2-6.5-7.7-10.2c0.8-5.3,4.6-7.1,9.2-6.6C111.3,311.5,112.5,315.7,113.6,320.3z"/>
	<path class="st2" d="M123.7,319.6l-11.3-14.7c17.2-17.1,22.2-36.1,53.4-52.1c19.8-9.9,31.4-11.2,33.1-5.4c0.4,1.5,1.3,4.2,0.1,6.6
		c-2.4,4.9-7.8,10.2-18,17.4C169.8,279.3,134.4,302.5,123.7,319.6z"/>
	<path class="st2" d="M109.2,226.3c-12.1-2-17.6-16.4-17.3-24c0.4-9.7,5.5-16,8.9-22.4c11.7-1.7,15.5-5.1,24-5.8
		c0.1,2.1,1.9,11.1,6.5,14.7c13.8,9.7,33.8,22.6,51.8,40.6c15.1,15,20.3,19.3,13.5,27.6l-23.2-5.7
		C140,243.1,142.2,231.9,109.2,226.3z"/>
	<path class="st3" d="M109.3,226.2c-12.1-2-17.6-16.4-17.3-24c0.4-9.7,5.5-16,8.9-22.4c1.1-0.1,2.2-0.3,3.2-0.5l5.2,7.8l33.2,36.6
		c15.5,11.3,27.4,18.5,45.5,25.1l-8,4l-6.6-1.5C139.9,243.5,142.2,231.9,109.3,226.2z"/>
	<path class="st3" d="M188.8,248.5c-27.1,20.7-42.9,28.4-71.9,62.3l-4.6-5.9c17.2-17.1,22.2-36.1,53.4-52.1c2.7-1.4,5.3-2.6,7.7-3.6
		C178.5,248.9,183.5,248.7,188.8,248.5z"/>
	<path class="st0" d="M82.3,76c9.9,11.5,3.3,18-4,28.5c-4.8-3.4-6.4-12.5-13.2-18.7c-9.8-8.9-20-25.5-22.9-29.1L23,9.4l4.3-5
		l26,45.2C63.1,63.2,77.5,70.5,82.3,76z"/>
	<path class="st4" d="M84.7,64.4c7.2,6.8,16.5,6.6,20.1,7.3c9.9,13.7,23,18.9,40.1,10.2c16.2-8.3,17.1-5.3,25.1-0.2
		c9.3,6,20.7,0.9,29.5-10.3c-10.2,2.9-14.9-2.2-17.9-7.9c-4.8-9.1-7.7-14.3-17.7-15.7c-8.5-1.2-14,3.9-18.1,2.5
		c-3.6-1.3-6.6-4.9-11.4-14.5c-5.9-11.7-13-21.3-28.8-23.5C92.1,10.4,80.5,17,79.3,34.4C73.5,46.1,78.4,58.5,84.7,64.4z"/>
	<path class="st5" d="M84.7,64.4c7.2,6.8,16.5,6.6,20.1,7.3c9.9,13.7,23,18.9,40.1,10.2c16.2-8.3,17.1-5.3,25.1-0.2
		c9.3,6,20.7,0.9,29.5-10.3c-27.8,17.9-23.8-8.4-37-11.1c-9.3-1.9-26.3,13.6-33.1-0.2C123.6,48.3,124,50,111.9,43
		c-11.8-6.9-31.4-26-32.6-8.6C73.5,46.1,78.4,58.5,84.7,64.4z"/>
	<path class="st6" d="M86,218.9c-11.2-5.1-12.6-20.4-10.3-27.7c3-9.3,9.6-14,14.6-19.3c11.8,1.5,16.3-0.7,24.7,0.8
		c-0.4,2.1-1.1,11.2,2.4,15.9c10.8,13.1,26.6,30.8,39.2,52.9c10.6,18.5,13.4,24.3,4.6,30.5l-19.8-12C112,242.1,116.4,232.9,86,218.9
		z"/>
	<path class="st2" d="M84.8,210.9c5.4,4.4,16.1,9.7,23.9,15.8c14.8,11.4,30.9,23.3,42.4,32.4l-10.7,0.3
		c-29-16.5-24.4-26.7-54.4-40.6c-11.2-5.1-12.6-20.4-10.3-27.7c3-9.3,9.6-14,14.6-19.3c0.6,0.1,0.1,0.1,0.6,0.2
		C77.6,187.7,75.1,203,84.8,210.9z"/>
	<path class="st7" d="M91,66.3c2.3,7.8,4,11.6-0.6,13.7c-2.9,1.3-6.5,0.7-9.9,0.4c-2.2-0.3,6.5,24.3,4.8,28.6l37,9.5L120.5,88
		c-7.8-7.9-14.5-10.4-15-24.3L91,66.3z"/>
	<path class="st0" d="M123.7,140.9c-2.5-37.8-20.3-46.9-25.8-75.8l-7,1.3c2.3,7.8,4,11.6-0.6,13.7c-2.9,1.3-6.5,0.7-9.9,0.4
		c-2.2-0.2-6.5-0.3-8.2,4c-1.5,7.3,6,24.2,11.2,31.4c9.6,13.2,15.1,17.3,15.2,28.7c0.1,5.8-1.6,18.9-10.1,28.2l32.4,8
		C123.2,168.7,124.7,155.1,123.7,140.9z"/>
	<path class="st8" d="M86.6,114.7l-7.3-18.6l-3.2-10.4l-11.2-4.1L52.8,69.3l-7.3-8c4.5,6.6,12.1,17.8,19.6,24.5
		c5.7,5.2,7.8,12.5,11.1,16.7c2.2,5.3,4.9,10.3,7.2,13.4c1,1.4,2,2.7,2.9,3.9L86.6,114.7z"/>
	<g>
		<path class="st0" d="M121,86.1c-2.3,0.2-2.6,9.8-5.7,18.8l1.1,14.1c4.2-3.5,3.2-1.7,8.1,0.5l23.4,22.4l48.5,25.3l5.8-4.1
			l-45.6-32.4l-23.4-29.5C130.6,97.9,125.4,85.8,121,86.1z"/>
		<polygon class="st7" points="197.8,160.1 196,166.8 204.7,171.7 215.2,165.8 228.7,167.7 229.3,164.5 213.9,158.4 201.7,161 		"/>
	</g>
	<polygon class="st7" points="29.6,8.8 23.2,9.9 19.5,1.3 25.9,-7.9 25.3,-20.5 28.3,-20.9 32.7,-6 29.1,5.1 	"/>
	<path class="st9" d="M118,113.7c-5-9.2-20.5-21-27.6-33.7c-0.8,0.3-1.7,0.6-2.6,0.7c-0.1,4.8,5.8,23.4-6.7,31.7
		c3.3,19.5,26.8,30.3,7.5,60.5l39.8,11.7c0.9-6.7,1.2-12.4,2.1-17.9c2.6-15.3,5.4-23.5,2.9-49.6c5.9-4.4,6-12.8,4.9-16.2
		c-1.7-5.1-8.9-7.8-15.2-13.3c-3.1-2.6-12-9.2-15.2-13.3c-0.2,0.4-0.3,0.1-0.3,0.1C109.7,80.4,121.5,106.3,118,113.7z"/>
	<path class="st10" d="M120.7,121c-9.8,3.9-16.2,5.9-26.4,2.3c16.9,21.3,26.3,25.7,35.7,45.7c0.1-0.8,0.3-1.7,0.4-2.5
		c2.6-15.3,5.4-23.5,2.9-49.6c1.5-1.1,2.7-2.5,3.5-4C131.7,116.5,125.4,119.4,120.7,121z"/>
	<path class="st10" d="M117.9,113.6c-5-9.2-20.5-21-27.6-33.7c-0.8,0.3-1.7,0.6-2.6,0.7c-0.1,4.8,5.8,23.4-6.7,31.7
		c3.3,19.5,26.8,30.3,7.5,60.5l27,7.9C124.8,162.7,123.6,122.7,117.9,113.6z"/>
	<path class="st11" d="M94.3,123.3c12.1,15.2,20.3,21.8,27.4,31.6c1.2-12.3,0.6-25.2-1.2-33.7C110.9,125,104.4,126.9,94.3,123.3z"/>
	<g>
		<path class="st12" d="M99.9,73.8c-1.8,0-3.6-1.2-6.9-4c-1.6-1.3-2.9-2.8-4.5-5c-1.6-2.3-2.6-4.5-3.5-7.3c-1.4,0.2-2.1-1-2.5-2.8
			c-0.7-2.6-1.8-5.3-2.3-7.6c-0.6-2.6,0.8-4.2,2.3-2.8c-0.1-2.4,0-5,0.4-8c1.3-9.7,6.2-13.8,16.3-14c9.1-0.2,14.9,6.2,16.5,14.8
			c0.5,2.3,0.5,4.7,0.4,7.2c1.6-2.4,3.4-0.8,2.9,2.1c-0.4,2.4-1.4,5-2,7.7c-0.4,1.8-1,3.1-2.6,2.8c-0.6,2.4-1.4,4.1-2.7,6.3
			c-1.8,3-3.3,4.6-5.2,6.4C103.6,72.2,101.8,73.5,99.9,73.8z"/>
		<path class="st7" d="M100.1,73.7H100c-1.8,0-3.6-1.2-6.9-4c-1.6-1.3-2.9-2.8-4.5-5c-1.6-2.3-2.6-4.5-3.5-7.3
			c-1.4,0.2-2.1-1-2.5-2.8c-0.7-2.6-1.8-5.3-2.3-7.6c-0.6-2.6,0.8-4.2,2.3-2.8c-0.1-2.4,0-5,0.4-8c1.3-9.7,6.2-13.8,16.3-14h0.2
			L100.1,73.7z"/>
	</g>
	<path class="st4" d="M82.1,28.5l2.9-7.8L96.7,18l12.8,2.6l6.2,6.2c1.2,11.6,2.3,13.9-1.5,24.4c-0.2-12.5-21.4-0.7-23.6-22.1
		c-4.6,7.1-6.6,12.6-7,21.1C80.7,38.8,81.5,39.9,82.1,28.5z"/>
	<path class="st0" d="M59.2,282c-15.2,6.4-18.3,18.9-25.4,27.5c-2.4,0-1.5-8.3-0.9-12.9c0.6-5.2,6.6-8.5,6.5-16c0-7.4-4.8-12,2.5-14
		c3.9-1,7.5,2.1,12.1,1.7c24.6-3,46.3-20.9,81-16.1c3.8,0.5,42.6,8.3,27.2,19.3c-4.6,2.5-12.9,4.6-25.3,4.6
		C123.2,276.2,78,274.4,59.2,282z"/>
	<path class="st1" d="M44.9,281.1c-2.7,6.6-4.6,16.4-5.4,20.3l-6,9.1c-2.4,0-1.8-8.9-1.2-13.6c0.6-5.3,6.7-8.6,6.6-16.2
		c-0.1-6.1-3-10.1-0.5-12.8c3.6-3.8,7.9-3.2,11.3-0.1C48.1,272.7,46.7,276.8,44.9,281.1z"/>
	<path class="st6" d="M55.4,285.3l-0.8-18.5c23.9-4.1,45.8-19.4,80.5-14.6c21.8,3.1,32.9,8.1,31,13.8c-0.5,1.5-1.3,4.2-3.7,5.5
		c-4.6,2.6-13,4.6-25.5,4.6C123.2,276.2,74,277.5,55.4,285.3z"/>
	<path class="st2" d="M55.4,285.3l-0.2-5.4c31.7-8.2,56.8-11.3,93.6-13.4c4.4,1.2,11.4,1.5,16.9,0.6c-0.5,1.5-1.4,3.4-3.3,4.4
		c-4.6,2.6-13,4.6-25.5,4.6C123.2,276.2,74,277.5,55.4,285.3z"/>
</g>
</svg>
