<?xml version="1.0" encoding="utf-8"?>
<!-- Generator: Adobe Illustrator 24.2.1, SVG Export Plug-In . SVG Version: 6.00 Build 0)  -->
<svg version="1.1" id="Layer_1" xmlns="http://www.w3.org/2000/svg" xmlns:xlink="http://www.w3.org/1999/xlink" x="0px" y="0px"
	 viewBox="0 0 152 334" style="enable-background:new 0 0 152 334;" xml:space="preserve">
<style type="text/css">
	.st0{fill-rule:evenodd;clip-rule:evenodd;fill:#FFC9B1;}
	.st1{fill-rule:evenodd;clip-rule:evenodd;fill:#FDC2A4;}
	.st2{fill-rule:evenodd;clip-rule:evenodd;fill:#64BEB2;}
	.st3{fill-rule:evenodd;clip-rule:evenodd;fill:#55B5A8;}
	.st4{fill-rule:evenodd;clip-rule:evenodd;fill:#320200;}
	.st5{fill-rule:evenodd;clip-rule:evenodd;fill:#210000;}
	.st6{fill-rule:evenodd;clip-rule:evenodd;fill:#F5B290;}
	.st7{fill-rule:evenodd;clip-rule:evenodd;fill:#FFD6C4;}
	.st8{fill-rule:evenodd;clip-rule:evenodd;fill:#60CCBC;}
	.st9{fill-rule:evenodd;clip-rule:evenodd;fill:#52B3A6;}
	.st10{fill-rule:evenodd;clip-rule:evenodd;fill:#41A89A;}
</style>
<g>
	<path class="st0" d="M26.7,63.7c1.8,6.3,3.3,9.4-0.5,11.1c-2.4,1.2-5.4,0.7-8.1,0.4c-1.8-0.2-5.3-0.2-6.7,3.3
		c-1.2,6,4.8,19.8,9.1,25.6c7.8,10.7,12.3,14,12.4,23.3c0.1,4.7-1.3,15.3-8.2,22.9l30.2,7.5c0.7-5.5,1.1-7.7,2.3-12.1
		c3.1-12.1,4.6-20.2,2.5-41.4c4.8-3.5,4.9-10.3,4-13.1c-1.4-4.1-7.2-6.3-12.4-10.8c-3.4-2.9-3.7-5.4-6.4-6
		c-4.2-0.9-5.8-5.2-6.6-12.8L26.7,63.7z"/>
	<path class="st1" d="M53.3,124.5c-2.1-30.7-16.5-38.2-21-61.7l-5.7,1c1.8,6.3,3.3,9.4-0.5,11.1c-2.4,1.2-5.4,0.7-8.1,0.4
		c-1.8-0.2-5.3-0.2-6.7,3.3c-1.2,6,4.8,19.8,9.1,25.6c7.8,10.7,12.3,14,12.4,23.3c0.1,4.7-1.3,15.3-8.2,22.9l26.4,6.5
		C52.8,147.1,54,136,53.3,124.5z"/>
	<path class="st1" d="M8,310.3c-6.3,11.8-1.7,21.3-1.7,30.4C4.8,342,1,336.3-1,333.1c-2.3-3.7-0.3-8.9-4.2-13.5
		c-3.9-4.7-9.3-5.1-5.7-10.1c1.9-2.7,5.7-2.5,8.4-5.2c13.9-14.6,18.2-37.1,42.5-52.1c14.8-9,24.2-12.1,26.5-8.1
		c1.9,3.3-0.6,12-12.9,22.2C45,273.4,15.7,295.8,8,310.3z"/>
	<path class="st2" d="M5.5,316.1l-8.4-12.6C11,288.9,15.7,267.2,40,252.2c3.1-1.9,6-3.5,8.6-4.9c-6.9-28.5-14.7-55.1-23.1-83.5
		l25-7.6l3.6,0.6c-0.8,3.9-0.7,7.8,0.3,11.2c7.6,27,13.6,48.4,12.8,76.9c0,0.6,0,1.2-0.1,1.8c0,0.8-0.1,1.7-0.4,2.7
		c-0.2,1.1-0.6,2-1,2.7c-1.9,3.9-5.6,8.8-12.1,14.2C40.1,277.4,10.9,302,5.5,316.1z"/>
	<path class="st3" d="M52.5,197.5L58,243c0.8,6.5,0.2,8.7-5.6,12.3c-25.1,10.8-30.7,28.4-51.3,54.3l-4-6C11,289,15.7,267.3,40,252.3
		c3.1-1.9,6-3.5,8.6-4.9c-6.9-28.5-14.7-55.1-23.1-83.5l0.4-0.1L52.5,197.5z"/>
	<path class="st4" d="M41.3,12.4c9.3,9.7,14.9,34.9-1.1,48.5c-6.9,5.8-16.3,3-23.7,0.7c-11.1-3.4-15.8-8.7-28.1-12
		c-11.1-3-26.3-11-25.5-36.5C-34.4,36-23.4,39.5-8.8,41.4c-15.2-5.8-22.8-10-25.3-28.6c-1.2-9-0.7-17.2-0.7-26.1
		C-22.7,29.4,18.8-10.9,41.3,12.4z"/>
	<path class="st5" d="M20,28.4c9.4,7.3,8.4,27,10.3,30.5c-2.7,8.6-6.4,5-13.8,2.7c-11.1-3.4-15.8-8.7-28.1-12
		c-11.1-3-26.3-11-25.5-36.5C-34.4,36-23.4,39.5-8.8,41.4c-15.2-5.8-22.8-10-25.3-28.6c-1.2-9-0.7-17.2-0.7-26.1
		C-32.4,40.3,3.4,15.6,20,28.4z"/>
	<path class="st1" d="M-21.1,200.4c-12.4-5-21.3,0.5-30.4,1.4c-1.4-1.4,3.9-5.6,6.9-8c3.4-2.7,8.8-1.2,13-5.6s4-9.7,9.4-6.7
		c2.8,1.7,3.1,5.5,6,7.9c16,12.3,38.8,14.3,56.2,36.9c11.9,15.7,14.3,26.7,8.1,27.2c-3.8,0.4-11.1-2.8-20.7-12.2
		C19.5,233.6-5.7,206.7-21.1,200.4z"/>
	<path class="st4" d="M-28.6,191.7c-5.3,2.3-12,6.9-14.7,8.7l-8.7,1.8c-1.5-1.4,4-6.2,7-8.6c3.4-2.7,8.8-1.2,13.1-5.6
		c3.4-3.6,4-7.6,7-7.7c4.3-0.1,6.4,2.7,6.6,6.4C-22.1,188.6-25.2,190.2-28.6,191.7z"/>
	<path class="st1" d="M13.1,76.5c1.7-0.3,3.8,6.7,7.8,12.7l1.9,10.6c-3.7-1.8-2.7-0.6-5.8,1.9l-12.9,21l-30.8,27.9l-5.1-1.9
		l27.3-32.5L7.1,90.1C8.4,87.2,9.9,77.3,13.1,76.5z"/>
	<path class="st6" d="M15.4,103.5c2.1-4.7,3.3-9,5.1-13.4c0.7,2.7,1.5,6.2,2.4,9.8c-1.1-0.5-3.2,2.1-3.7,2l-0.9-1.2
		c-0.3,0.4-0.7,0.7-1.2,1.1l-6.6,10.7L15.4,103.5z"/>
	<g>
		<path class="st7" d="M33.1,68c-1.5,0.3-3.1-0.4-6.1-2.2c-1.5-0.9-2.7-1.9-4.3-3.4c-1.7-1.6-2.8-3.2-3.9-5.3
			c-1.1,0.4-1.8-0.6-2.4-1.9c-0.9-2-2.2-4-2.9-5.8c-0.8-2,0.1-3.5,1.5-2.6c-0.4-1.9-0.7-3.9-0.8-6.4c-0.3-7.9,3-11.9,11.1-13.5
			c7.3-1.5,12.8,2.9,15.3,9.5c0.6,1.8,1,3.7,1.3,5.7c0.9-2.1,2.6-1.1,2.6,1.3c0,2-0.4,4.3-0.5,6.5c-0.1,1.5-0.4,2.6-1.7,2.6
			c-0.2,2.1-0.6,3.6-1.3,5.5c-1,2.7-1.9,4.2-3.2,5.9C35.9,66.4,34.6,67.8,33.1,68z"/>
		<path class="st0" d="M33.2,68.1L33.2,68.1c-1.6,0.3-3.2-0.4-6.2-2.2c-1.5-0.9-2.7-1.9-4.3-3.4c-1.7-1.6-2.8-3.2-3.9-5.3
			c-1.1,0.4-1.8-0.6-2.4-1.9c-0.9-2-2.2-4-2.9-5.8c-0.8-2,0.1-3.5,1.5-2.6c-0.4-1.9-0.7-3.9-0.8-6.4c-0.3-7.9,3-11.9,11.1-13.5h0.1
			L33.2,68.1z"/>
	</g>
	<path class="st8" d="M23.3,188.5c-4.9-8.9-12-18.8-6-29c2.3-3.9,5.8-6.5,8.8-10.1c13.2,4.8,18.2,5.8,24.9,7
		c-1.7,6.5-0.3,9.1,0.7,15.3c2.1,13.6,3.9,37.8,3.7,58.5c-0.2,17.3,0.3,22.8-8.4,23.5L37.2,237C24.8,216,32.1,204.4,23.3,188.5z"/>
	<path class="st2" d="M23.3,188.5c-4.9-8.9-12-18.8-6-29c2.3-3.9,5.8-6.5,8.8-10.1l1.3,0.5c-4.7,10.1-5.8,15.8-3.9,22.1
		c4.6,15.2,17.4,42.7,17.2,62.6l-2.5,4.2l-1-1.8C24.8,216,32.1,204.4,23.3,188.5z"/>
	<polygon class="st0" points="-29,145.8 -26.4,150.3 -31.9,155.6 -40.7,153.3 -50.2,157.2 -51.3,155.1 -41.2,147.6 -31.7,147.2 	"/>
	<path class="st4" d="M24.9,26c-6,0.9-14.5,7-10.2,20.3c2.1-0.4,4.2-0.8,6.2-1.2l-1.6-8.8l2.3,8.6c2.8-0.6,5.5-1.3,8.3-1.9L29,39.2
		l1.3,3.7c4-0.9,8-1.8,12-2.6C39.6,25.9,30.3,25.1,24.9,26z"/>
	<path class="st4" d="M36.2,37c4.9,5.5,4.8,6.9,5.7,13.3c0.7-4.8,0.4-8.6,0.1-12.6L36.2,37z"/>
	<path class="st4" d="M17.3,40.2c-0.7,6.2-0.3,8.4,1.4,14.3c-3.1-3.7-3.4-8.3-5.9-11.4L17.3,40.2z"/>
	<g>
		<path class="st0" d="M49.8,74.9c-8.3-4.2-8.6-1.3-10.6,3.6c-0.6,1.4,2.5,6.8,5,7.5c2.3,0.6,2.1,1.6,4.6,3.6
			c9,7.2,21.6,13.6,25.2,15.3l43.7,6.8l3.4-4.7L77.7,94C64.3,88.5,55.3,77.8,49.8,74.9z"/>
		<polygon class="st0" points="116.9,105.9 117.2,111.5 125.2,113 131.7,105.8 142.5,103.7 142.2,101.1 128.8,100.4 120.1,105.6 		
			"/>
	</g>
	<path class="st5" d="M-1.4,316.7c1.7,5.5,5.6,12.5,7.1,15.4l0.9,8.7c-1.6,1.3-5.8-4.6-7.9-7.8c-2.3-3.6-0.2-8.8-4.2-13.5
		c-3.3-3.8-7.2-4.7-7-7.7c0.3-4.3,3.3-6,7.1-5.8C-3.9,309.9-2.6,313.2-1.4,316.7z"/>
	<path class="st2" d="M41.5,72.5c2.8,7.2,9.6,24.5,7,29.7c-4-7.5-16.7-17.1-22.5-27.4c-0.6,0.3-1.4,0.5-2.1,0.6
		c0,3.9,4.8,19-5.4,25.8c0.6,1.1,1.3,2.1,1.9,2.9c7.8,10.7,12.3,14,12.4,23.3c0.1,4.7-1.3,15.3-8.2,22.9l30.2,7.5
		c0.7-5.5,1.1-7.7,2.3-12.1c3.1-12.1,4.6-20.2,2.5-41.4c4.8-3.5,4.9-10.3,4-13.1c-1.4-4.1-7.2-6.3-12.4-10.8c-1.7-1.5-5.3-5.2-8.1-8
		L41.5,72.5z"/>
	<path class="st9" d="M53.2,124.5c-0.6-9.3-2.3-16.5-4.6-22.6c0,0.1-0.1,0.2-0.1,0.3c-4-7.5-16.7-17.1-22.5-27.3
		c-0.6,0.3-1.4,0.5-2.1,0.6c0,3.9,4.8,19-5.4,25.8c0.6,1.1,1.3,2.1,1.9,2.9c7.8,10.7,12.3,14,12.4,23.3c0.1,4.7-1.3,15.3-8.2,22.9
		l26.4,6.5C52.8,147.1,54,136,53.2,124.5z"/>
	<path class="st10" d="M22.3,97.5c-1,1.4-2.2,2.6-3.8,3.7c0.6,1.1,1.3,2.1,1.9,2.9c2.9,3.9,5.3,6.8,7.2,9.4
		C25.1,108.8,23.5,102.8,22.3,97.5z"/>
	<path class="st5" d="M27.7,14.3C12.6,10.7-10.5,24.7-28,2.7C-13.5,19.1,12.5,6,28.1,9.3c10.9,2.3,19.7,12.9,20,34
		C45.2,23.7,36,16.2,27.7,14.3z"/>
	<path class="st9" d="M49.5,107.9c-8,3.1-13.2,4.7-21.5,1.8c13.7,17.3,21.2,20.8,28.9,37.1c4.1-14.7,4.6-23.5,2.8-42.4
		c1.2-0.9,2.1-2.1,2.8-3.3C58.3,104,53.2,106.4,49.5,107.9z"/>
	<path class="st10" d="M53.2,124.5c-0.4-6.7-1.4-12.2-2.8-17.1c-0.3,0.1-0.7,0.3-1,0.4c-8,3.1-13.2,4.7-21.5,1.8
		c11.6,14.7,18.7,19.5,25.3,30.4C53.6,135,53.6,129.8,53.2,124.5z"/>
	<path class="st8" d="M-25.1,200.1l10.1-11.2c16.2,11.3,37.6,14.9,55,37.5c10.9,14.3,14.2,24.6,9.8,26.8
		c-3.4,1.7-11.5-1.2-22.4-11.9C19.5,233.6-9.8,206.2-25.1,200.1z"/>
	<path class="st2" d="M-25,200.1l4-4.4c17.1,11.1,31.3,21.2,46.2,33.8c6.5,5.5,13.2,12.9,19.3,17.8c1.7,1.4,3.4,2.9,6.7,4.5
		c-0.3,0.6-0.8,1.1-1.4,1.4c-3.4,1.7-11.5-1.2-22.4-11.9C19.5,233.6-9.8,206.2-25,200.1z"/>
</g>
</svg>
